<svg width="79" height="52" viewBox="0 0 79 52" fill="none" xmlns="http://www.w3.org/2000/svg">
<path fill-rule="evenodd" clip-rule="evenodd" d="M23.6759 51.2818H5.91707C4.34909 51.2818 2.84389 50.6568 1.73441 49.5474C0.624937 48.438 0 46.9328 0 45.3647L0 5.91632C0 4.34456 0.624994 2.84314 1.73441 1.73366C2.84383 0.62419 4.349 -0.000747681 5.91707 -0.000747681L23.6759 -0.000747681V3.94523C23.6759 5.03245 24.5597 5.91632 25.6469 5.91632C26.7342 5.91632 27.618 5.03246 27.618 3.94523V-0.000747681L72.9759 -0.000747681C74.5477 -0.000747681 76.0491 0.624247 77.1623 1.73366C78.2718 2.84314 78.893 4.34825 78.893 5.91632V45.3647C78.893 46.9365 78.268 48.4379 77.1623 49.5474C76.0528 50.6568 74.5477 51.2818 72.9759 51.2818L27.618 51.2818V47.3358C27.618 46.2486 26.7342 45.3647 25.6469 45.3647C24.5597 45.3647 23.6759 46.2486 23.6759 47.3358V51.2818ZM54.4598 12.5027C54.1972 11.6891 53.4391 11.1381 52.5848 11.1381C51.7305 11.1381 50.9724 11.6891 50.7098 12.5027L48.0545 20.6794H39.4563C38.602 20.6794 37.8439 21.2304 37.5812 22.044C37.3187 22.8576 37.6071 23.7452 38.2987 24.2481L45.255 29.2997L42.5997 37.4764C42.3371 38.29 42.6256 39.1775 43.3171 39.6805C44.0087 40.1834 44.9444 40.1834 45.6359 39.6805L52.5922 34.6288L59.5485 39.6805C60.24 40.1834 61.1757 40.1834 61.8672 39.6805C62.5587 39.1775 62.8473 38.2862 62.5846 37.4764L59.9293 29.2997L66.8856 24.2481C67.5772 23.7451 67.8657 22.8538 67.6031 22.044C67.3405 21.2304 66.5824 20.6794 65.7281 20.6794H57.1299L54.4709 12.5027H54.4598ZM23.6759 35.5017V39.4476C23.6759 40.5349 24.5597 41.4187 25.6469 41.4187C26.7342 41.4187 27.618 40.5349 27.618 39.4476V35.5017C27.618 34.4144 26.7342 33.5306 25.6469 33.5306C24.5597 33.5306 23.6759 34.4144 23.6759 35.5017ZM23.6759 23.6675V27.6135C23.6759 28.7007 24.5597 29.5846 25.6469 29.5846C26.7342 29.5846 27.618 28.7007 27.618 27.6135V23.6675C27.618 22.5803 26.7342 21.6964 25.6469 21.6964C24.5597 21.6964 23.6759 22.5803 23.6759 23.6675ZM23.6759 11.8334V15.7794C23.6759 16.8666 24.5597 17.7505 25.6469 17.7505C26.7342 17.7505 27.618 16.8666 27.618 15.7794V11.8334C27.618 10.7462 26.7342 9.8623 25.6469 9.8623C24.5597 9.8623 23.6759 10.7462 23.6759 11.8334Z" fill="#1A1D29"/>
</svg>
