<svg width="1322" height="537" viewBox="0 0 1322 537" fill="none" xmlns="http://www.w3.org/2000/svg">
<path d="M639.333 1.23633C623.2 1.76966 589.333 3.23633 564 4.43633C538.667 5.503 493.733 7.36966 464 8.43633C376.133 11.6363 338.133 13.503 336.933 14.4363C335.2 15.903 396.133 17.7697 552.667 21.2363C586.4 21.903 633.867 22.9697 658 23.6363C701.2 24.703 702 24.703 705.067 22.0363C708.133 19.2363 713.867 3.103 712.533 0.969664C711.733 -0.363669 682.133 -0.363669 639.333 1.23633Z" fill="white"/>
<path d="M610.667 51.7697C595.6 52.303 560 53.503 531.333 54.303C502.8 55.103 462 56.4364 440.667 57.103C419.467 57.903 382.533 58.9697 358.667 59.7697C286.533 61.903 235.733 64.0364 232.133 65.103C227.067 66.4364 242.667 67.503 292 69.103C395.333 72.4364 611.467 76.4364 642 75.503L656.667 75.103L659.6 69.7697C661.2 66.8364 662.933 61.903 663.467 58.9697C664.133 54.4364 663.867 53.3697 661.867 52.4364C657.867 50.8364 639.867 50.5697 610.667 51.7697Z" fill="#FFE71A"/>
<path d="M52.8 118.169C52.5333 118.702 55.2 122.702 58.8 127.102C62.4 131.502 65.3333 136.036 65.3333 137.236C65.3333 139.236 52.4 175.636 47.3333 187.769C46.2667 190.302 36.9333 215.236 26.5333 243.102C16.1333 270.969 5.86667 298.302 3.73333 303.769C1.73333 309.236 0 313.902 0 314.169C0 314.436 26.2667 314.436 58.4 314.169L104.692 313.851C112.623 313.797 120.494 312.463 128 309.902V309.902C147.6 303.369 156.667 297.902 170.667 283.769C177.6 276.836 185.333 267.636 187.733 263.502C195.067 251.102 205.867 225.636 213.2 204.036C228.267 158.569 224.8 136.569 200.667 124.702C186.4 117.636 180 117.102 114.133 117.102C80.8 117.102 53.2 117.502 52.8 118.169ZM153.733 165.636C158.667 167.636 162 171.236 163.067 175.502C164.4 181.236 161.333 195.902 155.333 212.036C144.133 241.902 135.067 255.502 121.067 263.102C114.267 266.969 113.333 267.102 93.7333 267.502C79.6 267.902 73.3333 267.502 73.3333 266.569C73.3333 265.769 76.4 256.836 80.1333 246.836C83.8667 236.702 90.8 217.902 95.6 205.102C100.267 192.302 105.733 177.769 107.467 172.702V172.702C109.556 167.317 114.739 163.769 120.516 163.769H130.133C143.467 163.769 150.8 164.302 153.733 165.636Z" fill="#FFE71A"/>
<path d="M249.333 118.436C249.333 119.236 251.733 123.102 254.667 126.969C257.6 130.836 260 135.102 260 136.302C260 137.636 258.533 142.302 256.8 146.836C254.933 151.369 246.533 174.036 238 197.102C223.867 235.236 210.267 271.769 200.133 298.436C198 303.902 195.867 309.769 195.333 311.502L194.533 314.436L221.467 314.169L248.533 313.769L255.6 295.769C259.467 285.902 264.533 272.302 266.8 265.769C272.533 248.702 273.067 248.169 280.8 248.969L287.2 249.769L294.8 276.436C299.067 291.102 303.2 305.502 304.267 308.436L306 313.769L337.067 314.169C358.133 314.436 368 314.036 368 313.102C368 310.969 355.067 269.102 351.333 259.102C347.733 249.636 347.867 247.769 352.4 247.769C356.533 247.769 368.667 241.902 374.8 236.969C386.267 227.902 400.533 202.302 410 173.902C418 150.302 416.267 136.302 404.267 126.436C393.733 117.769 394.4 117.902 318.4 117.369C269.333 117.102 249.333 117.369 249.333 118.436ZM351.2 165.502C354.667 167.902 354.933 168.569 354.4 175.236C354 179.902 352.133 185.636 349.2 191.369C345.6 198.569 343.467 201.102 338.667 203.769C333.067 206.836 331.2 207.102 311.467 207.502C299.867 207.769 289.867 207.502 289.333 206.836C288 205.502 302.933 165.369 305.467 163.636C306.533 162.836 316.133 162.436 327.333 162.702C344.267 163.102 348 163.502 351.2 165.502Z" fill="#FFE71A"/>
<path d="M454.933 118.703C453.867 120.169 444.933 143.503 425.867 195.369C423.333 202.169 419.2 213.636 416.533 220.703C413.867 227.903 409.467 240.036 406.667 247.769C403.733 255.503 397.2 273.103 392.133 286.969C386.933 300.836 383.067 312.703 383.467 313.369C384.267 314.703 433.467 314.836 435.467 313.369C436.933 312.436 442 298.836 460.667 246.436C466 231.369 474.133 209.236 478.667 197.103C495.2 152.436 506.667 120.569 506.667 118.836C506.667 116.436 456.933 116.303 454.933 118.703Z" fill="#FFE71A"/>
<path d="M531.333 118.702C514.533 165.102 500.533 203.102 474.8 271.769C466.667 293.369 460 311.902 460 312.835C460 314.169 465.867 314.435 486.933 314.169L514 313.769L520.267 296.435C523.867 286.835 528.8 272.835 531.6 265.102C534.267 257.369 537.467 248.569 538.8 245.502L541.2 239.769L573.467 239.502L605.6 239.102L611.2 222.435C614.267 213.235 617.467 204.435 618.4 202.835C622.4 195.635 622.533 195.635 589.867 195.902C573.333 195.902 559.467 195.635 559.067 195.235C558.667 194.835 560.933 187.369 564.133 178.435L569.867 162.435L605.867 162.169L642 161.769L649.067 143.502C652.933 133.369 656.4 123.369 656.8 121.102L657.733 117.102H594.8C545.733 117.102 531.733 117.502 531.333 118.702Z" fill="#FFE71A"/>
<path d="M674.133 118.169C672.533 120.836 658.667 158.569 658.667 160.436C658.667 162.036 662 162.436 679.067 162.702C698.533 163.102 699.333 163.236 698.933 165.769C698.533 168.036 653.6 289.502 646.667 306.702C645.333 310.036 644.533 313.236 645.067 313.636C645.467 314.036 657.333 314.436 671.333 314.436C690.267 314.436 697.333 314.036 698.267 312.702C698.933 311.902 709.2 283.769 721.2 250.436C733.067 217.102 745.067 183.769 747.733 176.436L752.8 163.102L774.667 162.436L796.667 161.769L804.8 140.169C809.333 128.302 812.667 118.169 812.267 117.769C811.067 116.702 674.933 116.969 674.133 118.169Z" fill="#FFE71A"/>
<path d="M832.133 119.501C829.333 124.835 821.067 146.568 800 203.768C797.2 211.501 788.533 234.568 780.667 255.101C757.733 315.501 758.533 313.101 760.533 313.901C761.467 314.301 789.2 314.435 822.133 314.168C879.6 313.635 882.4 313.501 892.667 310.568C915.467 304.168 932.267 290.568 942.4 270.435C947.867 259.368 953.333 241.501 953.333 234.568C953.2 228.835 948.533 220.301 944.133 217.635C941.867 216.301 940 214.835 940 214.435C940 214.035 942.8 212.301 946.4 210.435C954.8 206.035 963.467 197.901 968.933 189.501C974.933 180.168 981.333 160.568 981.333 151.635C981.333 138.168 972.533 126.968 957.467 120.835C950.133 117.901 948.667 117.768 891.733 117.368C836 116.968 833.467 117.101 832.133 119.501ZM915.067 162.568C919.067 164.701 920 166.301 920 171.768C920 178.835 915.867 185.368 909.2 188.701C904 191.368 901.067 191.635 882 191.901C870.267 192.035 860.267 192.035 859.733 191.901C858.533 191.768 867.6 165.368 869.733 162.701C871.467 160.568 910.933 160.435 915.067 162.568ZM894.8 238.301C898 242.168 898 248.168 894.8 255.235C891.2 263.235 884.667 267.635 874.133 269.235C864.667 270.701 834.133 270.435 832.533 268.835C831.733 267.901 839.867 242.568 842.933 236.701C844.133 234.435 846.133 234.301 868.267 234.701C891.6 235.101 892.267 235.235 894.8 238.301Z" fill="white"/>
<path d="M1021.6 118.703C1020.93 119.636 1018.13 126.703 1015.33 134.436C1004.4 165.236 986.267 214.036 976.533 239.503C972.4 250.036 966.133 266.836 962.533 276.836C958.8 286.969 954.4 298.836 952.533 303.369C950.8 307.903 949.333 312.169 949.333 312.969C949.333 314.036 968.8 314.303 1016.8 314.169L1084.4 313.769L1092.8 291.769C1097.47 279.769 1101.33 269.636 1101.33 269.503C1101.33 269.236 1083.33 269.103 1061.33 269.103C1039.33 269.103 1021.33 268.836 1021.33 268.569C1021.33 266.703 1031.2 239.903 1032.8 237.369C1034.67 234.436 1034.93 234.436 1069.87 234.436H1104.93L1110 221.503C1112.8 214.303 1116.13 205.369 1117.47 201.503L1119.87 194.436H1084.53C1053.07 194.436 1049.33 194.169 1049.33 192.303C1049.33 189.503 1058.67 164.569 1060 163.769C1060.67 163.369 1071.73 163.236 1084.93 163.369C1098 163.503 1114.13 163.369 1120.93 162.836L1133.2 162.036L1136.8 153.236C1141.73 140.969 1149.33 119.636 1149.33 118.303C1149.33 117.636 1121.73 117.103 1086.13 117.103C1037.2 117.103 1022.67 117.503 1021.6 118.703Z" fill="white"/>
<path d="M1168.8 118.169C1167.2 120.836 1152 160.302 1152 161.902C1152 163.369 1156.53 163.769 1177.33 163.769C1191.33 163.769 1202.67 164.036 1202.67 164.436C1202.67 164.836 1197.87 178.169 1191.87 194.036C1186 210.036 1178.13 231.236 1174.53 241.102C1170.8 250.969 1163.73 270.169 1158.67 283.769C1153.73 297.369 1149.33 309.636 1149.07 311.102C1148.67 313.636 1149.47 313.769 1174.13 314.169C1193.47 314.436 1200 314.036 1200.93 312.836C1202.27 311.236 1214.67 278.436 1214.67 276.702C1214.67 276.302 1218.53 265.369 1223.33 252.436C1228.13 239.636 1235.87 218.436 1240.67 205.369C1245.47 192.436 1250.93 177.769 1252.8 172.702L1256.27 163.769H1279.87H1303.6L1305.33 160.036C1309.47 151.369 1321.33 120.036 1321.33 117.902C1321.33 116.702 1169.6 116.969 1168.8 118.169Z" fill="white"/>
<path d="M289.333 352.702C289.333 354.302 299.333 371.369 307.067 383.102C352.267 451.102 423.867 502.036 504.667 523.769C569.867 541.236 638.267 540.969 704.667 522.969C760.933 507.769 816.8 475.102 859.467 432.569C879.333 412.702 888.8 401.102 903.333 378.436C908.267 370.702 914 361.902 916.133 358.836C918.267 355.769 920 352.969 920 352.569C920 352.169 914.4 351.769 907.467 351.769H895.067L890.133 360.036C876 384.169 840.667 423.902 816.667 442.702C765.2 482.969 708.533 506.702 644.667 514.569C627.733 516.702 578 516.569 560.667 514.569C461.467 502.436 372.133 446.436 323.333 365.769L315.6 353.102L307.467 352.969C303.067 352.836 297.067 352.569 294.4 352.302C291.6 352.036 289.333 352.302 289.333 352.702Z" fill="white"/>
<path d="M336 352.435C336 354.302 341.067 362.702 349.067 374.435C358 387.635 361.067 391.369 372.667 404.035L379.6 411.502L387.733 402.035C392.133 396.702 400.267 388.569 405.867 383.769C411.333 378.969 415.867 374.569 415.867 374.035C416 373.102 405.733 358.702 401.333 353.369C400.267 352.169 391.867 351.769 368 351.769C350.4 351.769 336 352.035 336 352.435Z" fill="#FFE71A"/>
<path d="M418.667 353.903C418.667 357.636 447.867 385.236 460.533 393.636C485.333 410.036 521.867 424.436 554.267 430.703C576.8 434.97 621.2 435.103 644.667 430.703C697.6 421.103 745.6 397.103 781.733 362.303C785.2 358.97 788 355.503 788 354.703C788 353.77 786.133 353.103 783.867 353.103C780.667 353.103 777.733 354.97 770.133 361.903C740.4 389.636 708.667 406.57 665.333 418.303C603.333 434.97 527.2 424.836 472.933 392.703C458.667 384.17 448.667 376.303 435.467 363.103C424.533 352.036 418.667 348.97 418.667 353.903Z" fill="white"/>
<path d="M803.467 354.036C802.4 355.369 799.333 359.369 796.533 363.103C793.867 366.703 791.067 370.436 790.4 371.236C789.6 372.303 794.8 377.103 806.667 386.436C816.267 393.903 825.467 402.036 827.067 404.569C828.667 406.969 830.4 408.969 830.8 408.703C834.933 407.236 872 356.703 872 352.569C872 352.169 856.933 351.769 838.667 351.769C808.533 351.769 805.067 352.036 803.467 354.036Z" fill="#FFE71A"/>
<path d="M736.8 409.902C730.533 414.168 709.2 424.435 699.733 427.635C694.133 429.502 692.8 430.568 693.067 432.568C693.333 434.035 696.933 443.502 700.933 453.768C704.933 464.035 708.8 474.435 709.467 476.702C710.267 479.102 711.067 481.102 711.467 481.102C712.267 481.102 726.4 475.235 738.933 469.635C753.733 462.968 770.667 453.235 770.667 451.368C770.667 450.435 765.333 441.768 758.8 432.168C752.4 422.435 746.267 412.702 745.333 410.435C744.4 408.302 743.333 406.435 742.8 406.435C742.4 406.435 739.6 408.035 736.8 409.902Z" fill="#FFE71A"/>
<path d="M459.867 416.036C458.133 419.902 452.267 430.436 447.067 439.636C441.733 448.702 437.333 456.436 437.333 456.702C437.333 458.436 491.6 482.436 495.467 482.436C497.067 482.436 502 469.902 509.467 447.102C511.6 440.569 513.333 434.436 513.333 433.636C513.333 432.702 509.867 430.702 505.733 429.102C501.467 427.502 490.533 422.436 481.333 417.636C472.133 412.969 464.267 409.102 463.867 409.102C463.467 409.102 461.733 412.169 459.867 416.036Z" fill="#FFE71A"/>
<path d="M574.667 446.169C574.667 455.236 573.067 479.102 572 486.836C571.2 492.702 570.933 497.769 571.333 498.169C572.667 499.502 633.467 500.169 634.8 498.836C635.333 498.302 635.333 493.502 634.667 488.436C634 483.236 632.8 471.636 632 462.436L630.4 445.636L602.533 445.769C587.2 445.769 574.667 445.902 574.667 446.169Z" fill="#FFE71A"/>
</svg>
