<svg width="17" height="16" viewBox="0 0 17 16" fill="none" xmlns="http://www.w3.org/2000/svg">
<path d="M10.6254 0.00622559H15.2629C16.0109 0.00622559 16.6135 0.577235 16.6135 1.27731V5.64201C16.6135 6.346 16.0068 6.91309 15.2629 6.91309H10.6254C9.87744 6.91309 9.2749 6.34209 9.2749 5.64201V1.27731C9.2749 0.577235 9.87744 0.00622559 10.6254 0.00622559Z" fill="white"/>
<path d="M16.601 11.2896L13.9 8.7474C13.3722 8.2507 12.5162 8.2507 11.9885 8.7474L9.28741 11.2896C8.75967 11.7863 8.75967 12.5919 9.28741 13.0886L11.9885 15.6308C12.5162 16.1275 13.3722 16.1275 13.9 15.6308L16.601 13.0886C17.1288 12.5919 17.1288 11.7863 16.601 11.2896Z" fill="white"/>
<path d="M1.35053 0.00622559H5.98802C6.73601 0.00622559 7.33855 0.577235 7.33855 1.27731V5.64201C7.33855 6.346 6.73185 6.91309 5.98802 6.91309H1.35053C0.602542 6.91309 0 6.34209 0 5.64201V1.27731C0 0.577235 0.606698 0.00622559 1.35053 0.00622559Z" fill="white"/>
<path d="M1.35053 8.7356H5.98802C6.73601 8.7356 7.33855 9.30661 7.33855 10.0067V14.3714C7.33855 15.0754 6.73185 15.6425 5.98802 15.6425H1.35053C0.602542 15.6425 0 15.0715 0 14.3714V10.0067C0 9.30269 0.606698 8.7356 1.35053 8.7356Z" fill="white"/>
</svg>
