<svg width="20" height="12" viewBox="0 0 20 12" fill="none" xmlns="http://www.w3.org/2000/svg">
<path d="M19.5115 5.918C19.4024 5.815 19.2309 5.79735 19.103 5.8768C18.9378 5.97685 18.7008 6.09161 18.4732 6.09161C17.8714 6.09161 17.4504 5.66199 16.5555 5.66199C15.698 5.66199 15.0401 5.97096 15.0401 5.97096C15.0401 5.80029 14.8935 5.66199 14.7126 5.66199H14.4694C14.2979 5.66199 14.1545 5.78852 14.142 5.95036L14.0017 7.74242C13.9892 7.92192 14.1389 8.07493 14.3291 8.07493H14.7844C14.9184 8.07493 15.0401 7.99843 15.0899 7.87778C15.1804 7.65414 15.3643 7.46876 15.6044 7.37459C15.8601 7.2716 16.2156 7.21569 16.6615 7.33339C17.0232 7.4305 17.1698 7.48935 17.6531 7.48935C17.6531 7.48935 15.3051 8.53693 15.1523 11.6796C15.143 11.8562 15.2926 12.0063 15.4797 12.0063H17.2508C17.4255 12.0063 17.572 11.8768 17.5783 11.7091C17.6936 9.10779 19.2933 7.31868 19.9044 6.73016C20.0291 6.60951 20.0291 6.4153 19.9013 6.29465L19.5115 5.918Z" fill="white"/>
<path d="M5.51055 5.918C5.40141 5.815 5.22991 5.79735 5.10207 5.8768C4.9368 5.97685 4.69982 6.09161 4.47219 6.09161C3.87039 6.09161 3.44943 5.66199 2.55452 5.66199C1.69702 5.66199 1.03908 5.97096 1.03908 5.97096C1.03908 5.80029 0.892526 5.66199 0.711671 5.66199H0.468453C0.296954 5.66199 0.153517 5.78852 0.141045 5.95036L0.000726653 7.74242C-0.0117461 7.92192 0.137927 8.07493 0.328135 8.07493H0.78339C0.917471 8.07493 1.03908 7.99843 1.08897 7.87778C1.1794 7.65414 1.36337 7.46876 1.60347 7.37459C1.85916 7.2716 2.21463 7.21569 2.66053 7.33339C3.02224 7.4305 3.1688 7.48935 3.65211 7.48935C3.65211 7.48935 1.30413 8.53693 1.15133 11.6796C1.14198 11.8562 1.29165 12.0063 1.47874 12.0063H3.24987C3.42449 12.0063 3.57104 11.8768 3.57728 11.7091C3.69265 9.10779 5.29228 7.31868 5.90344 6.73016C6.02817 6.60951 6.02817 6.4153 5.90032 6.29465L5.51055 5.918Z" fill="white"/>
<path d="M14.5254 0.326984C14.4101 0.218107 14.2323 0.206337 14.1014 0.294615C13.8051 0.497656 13.2532 0.818401 12.7325 0.818401C11.5881 0.818401 10.793 0.0032959 9.09979 0.0032959C7.47522 0.0032959 6.23107 0.588877 6.23107 0.588877V0.312271C6.23107 0.141599 6.08452 0.0032959 5.90366 0.0032959H4.8809C4.7094 0.0032959 4.56596 0.129829 4.55349 0.291673L4.25414 4.23772C4.24167 4.41722 4.39134 4.57024 4.58155 4.57024H5.96914C6.1157 4.57024 6.24354 4.47902 6.28408 4.34366C6.43375 3.85518 6.80482 3.44616 7.30684 3.24606C7.79328 3.05185 8.46057 2.94297 9.30871 3.16955C9.99471 3.352 10.2691 3.46382 11.1859 3.46382C11.1859 3.46382 6.5959 5.51482 6.44311 11.6914C6.43999 11.865 6.58654 12.0062 6.77052 12.0062H10.7088C10.8865 12.0062 11.0331 11.8709 11.0362 11.7031C11.164 6.31816 14.6813 2.72228 15.6449 1.83361C15.7758 1.71296 15.7758 1.5158 15.648 1.39221L14.5254 0.326984Z" fill="white"/>
</svg>
