<!DOCTYPE svg PUBLIC "-//W3C//DTD SVG 1.1//EN" "http://www.w3.org/Graphics/SVG/1.1/DTD/svg11.dtd">
<!-- Uploaded to: SVG Repo, www.svgrepo.com, Transformed by: SVG Repo Mixer Tools -->
<svg fill="#ffffff" version="1.1" id="Capa_1" xmlns="http://www.w3.org/2000/svg" xmlns:xlink="http://www.w3.org/1999/xlink" width="800px" height="800px" viewBox="0 0 195.379 195.379" xml:space="preserve" stroke="#ffffff">
<g id="SVGRepo_bgCarrier" stroke-width="0"/>
<g id="SVGRepo_tracerCarrier" stroke-linecap="round" stroke-linejoin="round"/>
<g id="SVGRepo_iconCarrier"> <g> <path d="M194.293,67.651c-1.035-0.892-2.545-1.011-3.714-0.268L157.844,88.16l-8.47-18.365c-0.359-0.746-0.993-1.34-1.784-1.62 c-0.798-0.295-1.656-0.244-2.412,0.131l-22.316,10.83L111.87,62.619c5.14-4.202,8.129-10.413,8.129-17.135 c0-12.31-10.01-22.311-22.31-22.311c-12.303,0-22.311,10.001-22.311,22.311c0,6.722,2.987,12.933,8.126,17.135L72.961,78.487 L50.12,68.27c-1.553-0.706-3.379-0.021-4.104,1.525L37.37,88.513L4.82,67.396c-1.154-0.743-2.676-0.649-3.724,0.244 c-1.054,0.91-1.389,2.375-0.828,3.641l38.285,86.524c0.5,1.139,1.62,1.863,2.85,1.863h112.573c1.242,0,2.351-0.725,2.851-1.863 l38.294-86.524C195.663,70.026,195.335,68.556,194.293,67.651z M42.707,91.826l7.669-16.611l19.086,8.525l-11.886,17.893 l-14.952-9.706C42.637,91.887,42.694,91.862,42.707,91.826z M95.22,79.048l-30.604,45.777c-0.597,0.896-1.583,1.383-2.594,1.383 c-0.572,0-1.157-0.158-1.684-0.487l-21.616-13.828c-1.446-0.92-1.876-2.862-0.935-4.306c0.917-1.442,2.85-1.863,4.296-0.919 l19.05,12.166l28.899-43.245c0.959-1.428,2.898-1.814,4.326-0.874C95.786,75.674,96.173,77.616,95.22,79.048z M137.463,101.097 l-11.106-16.721l18.693-9.073l7.49,16.236L137.463,101.097z M152.248,172.206H43.13c-1.714,0-3.118-1.395-3.118-3.118 c0-1.718,1.404-3.118,3.118-3.118h109.118c1.711,0,3.117,1.4,3.117,3.118C155.365,170.823,153.959,172.206,152.248,172.206z"/> </g> </g>
</svg>