<svg width="18" height="22" viewBox="0 0 18 22" fill="none" xmlns="http://www.w3.org/2000/svg">
<path d="M8.8698 10.5983C10.2979 10.5983 11.5334 10.075 12.5425 9.04567C13.5515 8.0163 14.0645 6.75355 14.0645 5.29916C14.0645 3.84232 13.5515 2.58202 12.5425 1.55265C11.5334 0.523283 10.2955 0 8.8698 0C7.44167 0 6.20621 0.523283 5.19713 1.55265C4.18805 2.58202 3.67508 3.84478 3.67508 5.29916C3.67508 6.756 4.18805 8.0163 5.19713 9.04567C6.20862 10.075 7.44408 10.5983 8.8698 10.5983Z" fill="#A0A3A7"/>
<path d="M17.9612 16.9195C17.9323 16.4896 17.872 16.0228 17.7853 15.529C17.6986 15.0303 17.5855 14.561 17.4506 14.1311C17.3109 13.6864 17.1207 13.2467 16.887 12.8266C16.6438 12.3893 16.3572 12.0109 16.0369 11.6965C15.7022 11.3697 15.2903 11.1069 14.8159 10.9152C14.3439 10.7236 13.8189 10.6278 13.2577 10.6278C13.0386 10.6278 12.8242 10.7212 12.4124 10.9939C12.1595 11.1634 11.8633 11.3575 11.5334 11.5712C11.2516 11.7554 10.8687 11.9274 10.3943 12.0822C9.93186 12.2345 9.46465 12.3107 9.00225 12.3107C8.53986 12.3107 8.07265 12.2345 7.61025 12.0822C7.13822 11.9274 6.7553 11.7554 6.47353 11.5712C6.146 11.3575 5.84978 11.1634 5.59209 10.9914C5.18027 10.7187 4.96834 10.6253 4.74677 10.6253C4.18564 10.6253 3.66303 10.7212 3.1886 10.9128C2.71416 11.1044 2.30475 11.3673 1.96759 11.694C1.64728 12.006 1.36069 12.3868 1.11745 12.8241C0.883849 13.2442 0.693592 13.684 0.55391 14.1286C0.419045 14.5586 0.305855 15.0278 0.219156 15.5265C0.132457 16.0203 0.0746574 16.4871 0.0433494 16.917C0.0144497 17.3371 0 17.7744 0 18.2166C0 19.3664 0.358838 20.295 1.06447 20.9805C1.76047 21.6561 2.68526 22 3.80512 22H14.1922C15.3144 22 16.2368 21.6561 16.9328 20.9805C17.6384 20.295 17.9973 19.3639 17.9973 18.2166C18.0069 17.7769 17.9901 17.3396 17.9612 16.9195Z" fill="#A0A3A7"/>
</svg>
