<svg width="17" height="21" viewBox="0 0 17 21" fill="none" xmlns="http://www.w3.org/2000/svg">
<path d="M11.3152 2.97621L11.3144 2.97678L11.3138 2.97595C9.39483 0.228375 5.63674 -0.461292 2.92067 1.43568C0.203769 3.33324 -0.442295 7.09889 1.47713 9.84711C2.68668 11.5789 4.62644 12.4927 6.57508 12.457L6.57426 12.4575L6.61175 12.5077C6.78288 12.7527 7.04225 12.9201 7.33411 12.9737L8.17343 13.1277L8.04182 13.8946C7.98971 14.1982 8.06529 14.4965 8.23008 14.7324C8.39486 14.9683 8.64942 15.1428 8.95244 15.1984L10.2875 15.4434L10.5876 15.873L10.3453 17.285C10.2951 17.5775 10.363 17.8786 10.5341 18.1236L11.2433 19.1408C11.4144 19.3858 11.6746 19.5526 11.9665 19.6062L14.0997 19.9969C14.4112 20.075 14.7405 20.015 15.0024 19.8321L15.9893 19.1428L10.1729 10.8149C10.0098 10.5814 10.0646 10.2624 10.2953 10.1012C10.5253 9.94057 10.8437 9.99901 11.0067 10.2325L16.53 18.1406L16.8668 16.1823C16.917 15.8898 16.8491 15.5887 16.678 15.3436L12.0104 8.66066C12.7156 6.84289 12.5247 4.70769 11.3151 2.97586L11.3143 2.97643L11.3152 2.97621ZM7.44374 3.96325C8.16703 4.99886 7.92353 6.41782 6.89978 7.13284C5.87604 7.84785 4.46 7.58798 3.73669 6.55236C3.01338 5.51674 3.2569 4.09779 4.28064 3.38278C5.30439 2.66777 6.72043 2.92763 7.44374 3.96325Z" fill="#A0A3A7"/>
</svg>
