<svg width="22" height="20" viewBox="0 0 22 20" fill="none" xmlns="http://www.w3.org/2000/svg">
<path d="M21.2214 2.02024H18.2941C18.3539 1.32514 18.3641 0.869395 18.3671 0.784267C18.3722 0.576936 18.2921 0.379626 18.1441 0.230369C17.9961 0.0821309 17.7964 0 17.5886 0H4.41454C4.20473 0 4.00505 0.0821309 3.85909 0.230369C3.71414 0.378605 3.63305 0.576933 3.63609 0.784267C3.63609 0.8684 3.64927 1.32514 3.70907 2.02024H0.781813C0.359136 2.02024 0.0165371 2.35078 0.00335522 2.76945C-0.0817873 5.8774 1.42547 11.91 7.74122 12.5C8.33316 13.0128 9.00723 13.4204 9.78063 13.6799C10.1749 13.8111 10.5875 13.8772 11 13.8772C11.4125 13.8772 11.8281 13.8101 12.2194 13.6799C12.9928 13.4204 13.6668 13.0128 14.2588 12.5C20.5747 11.91 22.0818 5.8774 21.9966 2.76945C21.9865 2.35378 21.6409 2.02024 21.2182 2.02024H21.2214ZM1.58063 3.5587H3.87952C4.16739 5.61498 4.79581 8.4205 6.15508 10.6049C2.39565 9.31278 1.70233 5.25639 1.58063 3.5587ZM12.5024 8.42845L11.132 7.69027C11.0489 7.64619 10.9506 7.64619 10.8674 7.69027L9.49705 8.42845C9.2923 8.53862 9.05105 8.36434 9.09464 8.13898L9.38251 6.62055C9.40076 6.53041 9.36934 6.43625 9.30244 6.37215L8.16617 5.31346C7.99791 5.15721 8.08813 4.87477 8.31923 4.84672L9.86805 4.6494C9.9613 4.63638 10.0424 4.58029 10.0809 4.49515L10.7499 3.09992C10.8482 2.89259 11.1472 2.89259 11.2486 3.09992L11.9176 4.49515C11.9561 4.57929 12.0372 4.63638 12.1304 4.6494L13.6793 4.84672C13.9104 4.87476 14.0006 5.1572 13.8323 5.31346L12.696 6.37215C12.6281 6.43625 12.5977 6.5284 12.616 6.62055L12.9038 8.13898C12.9484 8.36435 12.7042 8.53863 12.5014 8.42845H12.5024ZM19.685 6.76878C18.9035 8.71791 17.6141 10.0001 15.8422 10.6049C17.2015 8.42045 17.8299 5.61493 18.1178 3.55878H20.4116C20.3518 4.31298 20.1805 5.53593 19.6848 6.76904L19.685 6.76878Z" fill="#A0A3A7"/>
<path d="M6.58851 19.2308C6.58851 19.6565 6.93617 20 7.36697 20H14.6326C15.0634 20 15.411 19.6565 15.411 19.2308V16.9231H6.58851V19.2308Z" fill="#A0A3A7"/>
<path d="M13.4142 14.0054C13.1162 14.1617 12.802 14.2979 12.4695 14.408C11.9972 14.5673 11.5015 14.6464 11.0008 14.6464C10.5001 14.6464 10.0044 14.5673 9.53205 14.408C9.21784 14.3029 8.91982 14.1747 8.634 14.0314C8.36641 15.1442 7.50788 15.9745 7.18046 16.1568H14.8737C14.5443 15.9746 13.6776 15.1362 13.4151 14.0084L13.4142 14.0054Z" fill="#A0A3A7"/>
</svg>
