<svg width="20" height="20" viewBox="0 0 20 20" fill="none" xmlns="http://www.w3.org/2000/svg">
<path fill-rule="evenodd" clip-rule="evenodd" d="M9.38486 20V10.2203H1.41066V18.6555C1.41066 19.3941 2.01744 20 2.75529 20H9.38486ZM10.6151 10.2203V20H17.2447C17.9834 20 18.5893 19.3941 18.5893 18.6555V10.2203H10.6151ZM14.8409 3.10952C17.3832 1.20997 15.6789 -0.329087 13.8593 0.0631885C12.7835 0.295199 11.6115 1.19408 10.8571 3.10952H14.8409ZM10.6151 8.98937H20V4.93565C20 4.60933 19.7312 4.34057 19.4049 4.34057H10.6151L10.6151 8.98937ZM9.14282 3.10952C7.51774 -1.01664 3.99377 -0.333146 3.87283 1.15989C3.82943 1.69904 4.18667 2.38342 5.15819 3.10952H9.14282ZM0.79554 8.98937H9.3849V4.34061H0.595117C0.270444 4.34061 0 4.60518 0 4.93569V8.98942L0.79554 8.98937Z" fill="#A0A3A7"/>
</svg>
