<svg width="17" height="21" viewBox="0 0 17 21" fill="none" xmlns="http://www.w3.org/2000/svg">
<path d="M11.4452 18.2413C11.4452 19.286 10.8841 20.0856 9.97281 20.6082C9.06182 21.1306 7.93932 21.1306 7.03004 20.6082C6.11848 20.0856 5.55766 19.286 5.55766 18.2413" fill="#A0A3A7"/>
<path d="M8.49972 0C9.30268 0 9.94941 0.491406 9.94941 1.24709C9.94941 1.72273 9.96614 2.07764 10.2673 2.16855C12.8278 2.93605 14.4698 4.73506 14.4698 7.07135V10.9981C14.4698 12.7971 15.2112 13.1613 16.1443 13.8494C17.4956 14.8443 17.1871 16.9161 15.6365 16.9147H1.36351C-0.187119 16.9161 -0.495601 14.8443 0.85571 13.8494C1.78768 13.1613 2.53025 12.7971 2.53025 10.9981V7.07135C2.53025 4.73506 4.17218 2.93605 6.73275 2.16855C7.03301 2.07764 7.05059 1.72273 7.05059 1.24709C7.05087 0.491406 7.69789 0 8.49972 0Z" fill="#A0A3A7"/>
</svg>
