<svg width="19" height="19" viewBox="0 0 19 19" fill="none" xmlns="http://www.w3.org/2000/svg">
<path d="M14.8609 11.2181L17.5362 8.54227C19.4879 6.59098 19.4879 3.41524 17.5362 1.46395C15.5847 -0.487982 12.4093 -0.487982 10.4578 1.46395L6.59681 5.32495C4.64512 7.27624 4.64512 10.452 6.59681 12.4033C6.88498 12.6916 7.20037 12.9361 7.53413 13.1392L9.60109 11.072C9.20738 10.9779 8.83393 10.7792 8.5274 10.4729C7.64032 9.58579 7.64032 8.14222 8.5274 7.25534L12.3884 3.39434C13.2754 2.50725 14.719 2.50725 15.6059 3.39434C16.4929 4.28143 16.4929 5.72479 15.6059 6.61188L14.4716 7.74638C14.939 8.84648 15.0682 10.0564 14.8609 11.2181Z" fill="#A0A3A7"/>
<path d="M4.1393 7.78206L1.46393 10.4577C-0.487977 12.4092 -0.487977 15.5847 1.46393 17.5362C3.4152 19.4879 6.5909 19.4879 8.54239 17.5362L12.4031 13.6752C14.3548 11.7237 14.3546 8.54818 12.4031 6.59689C12.1152 6.30851 11.7998 6.06404 11.466 5.86096L9.39906 7.92815C9.79257 8.02252 10.166 8.22075 10.4728 8.52728C11.3598 9.41437 11.3598 10.8577 10.4728 11.7448L6.61159 15.6058C5.72451 16.4929 4.28117 16.4929 3.39409 15.6058C2.50701 14.7187 2.50701 13.2754 3.39409 12.3883L4.52859 11.254C4.06098 10.1539 3.93178 8.9438 4.1393 7.78206Z" fill="#A0A3A7"/>
</svg>
