<svg width="22" height="22" viewBox="0 0 22 22" fill="none" xmlns="http://www.w3.org/2000/svg">
<path d="M21.9997 11.7549V14.8136C21.9976 16.2876 20.9558 17.5559 19.5068 17.8501L18.3105 18.1875C18.1349 18.2413 17.952 18.2676 17.769 18.2666C17.6748 18.2729 17.5807 18.2729 17.4866 18.2666V18.9076C17.4813 19.9915 16.6002 20.8698 15.5129 20.875H13.6736C13.1775 21.6152 12.3293 22.0411 11.4376 21.9969C10.547 21.9536 9.74426 21.4465 9.32435 20.6621C8.90339 19.8776 8.92665 18.9308 9.3857 18.1685C9.84473 17.4052 10.6719 16.9391 11.5635 16.9391C12.8539 16.9381 13.9359 17.9092 14.0681 19.1881H15.5129C15.5869 19.1881 15.6589 19.1585 15.7117 19.1058C15.7646 19.0531 15.7942 18.9814 15.7942 18.9076V16.6576V16.5227V16.2981V10.2704C15.79 9.65573 16.0788 9.07477 16.5727 8.7068C17.0677 8.32936 17.7118 8.20808 18.3105 8.38102L19.0668 8.59505V8.594C18.6553 6.0214 17.0349 3.7998 14.706 2.61785C12.378 1.43593 9.6218 1.43593 7.29373 2.61785C4.96469 3.79977 3.3443 6.02119 2.933 8.594L3.68926 8.37996V8.38102C4.28473 8.21127 4.92464 8.33041 5.41857 8.70154C5.91251 9.07267 6.20443 9.6536 6.20548 10.2704V16.2981C6.20548 16.82 5.99712 17.3208 5.62693 17.6898C5.25674 18.0588 4.75432 18.2666 4.23079 18.2666C4.04781 18.2676 3.86482 18.2412 3.68926 18.1875L2.42531 17.7826C1.00483 17.4747 -0.00633321 16.2179 2.98622e-05 14.7682V11.7549C2.98622e-05 10.8281 0.413575 9.95092 1.12859 9.35943C1.29148 5.96339 3.20379 2.89205 6.18439 1.23991C9.16501 -0.413304 12.7906 -0.413304 15.7712 1.23991C18.7519 2.89208 20.6629 5.96339 20.827 9.35943C21.5579 9.9425 21.9881 10.8208 21.9997 11.7549Z" fill="#A0A3A7"/>
</svg>
