<svg width="25" height="23" viewBox="0 0 25 23" fill="none" xmlns="http://www.w3.org/2000/svg">
<path fill-rule="evenodd" clip-rule="evenodd" d="M12.3032 20.2145L8.1309 22.7597C7.76252 22.9845 7.3193 23.0534 6.89963 22.9517C6.47996 22.8501 6.1174 22.586 5.89266 22.2176L0.238693 12.9495C0.0134189 12.5802 -0.0549351 12.1379 0.0466989 11.7182C0.148333 11.2986 0.412393 10.936 0.7808 10.7113L4.95311 8.16597L5.51867 9.09305C5.67449 9.34849 6.00883 9.42947 6.26427 9.27364C6.51971 9.11781 6.60068 8.78347 6.44486 8.52803L5.8793 7.60095L16.5358 1.1C16.9051 0.87473 17.3474 0.806376 17.768 0.907481C18.1876 1.00913 18.5493 1.2737 18.7741 1.64211L24.428 10.9102C24.6533 11.2795 24.7217 11.7218 24.6209 12.141C24.5192 12.5607 24.2552 12.9232 23.8859 13.1485L13.2294 19.6494L12.6638 18.7224C12.508 18.4669 12.1737 18.3859 11.9182 18.5418C11.6628 18.6976 11.5818 19.0319 11.7376 19.2874L12.3032 20.2145ZM13.9776 6.69145C13.7993 6.53794 13.5423 6.51713 13.3415 6.63958C13.1408 6.76202 13.0417 7.00014 13.0966 7.22892L13.6447 9.53054L11.6246 10.7629C11.4239 10.8853 11.3248 11.1234 11.3797 11.3522C11.4346 11.581 11.6296 11.7482 11.8641 11.7672L14.2225 11.9571L14.7706 14.2587C14.8255 14.4875 15.0205 14.6547 15.255 14.6737C15.4896 14.6927 15.7094 14.5586 15.7998 14.3414L16.7101 12.1575L19.0685 12.3473C19.303 12.3664 19.5229 12.2323 19.6132 12.015C19.7036 11.7977 19.6437 11.547 19.4659 11.3943L17.6701 9.85386L18.5804 7.66999C18.6708 7.45271 18.6109 7.20196 18.4331 7.04933C18.2548 6.89581 17.9977 6.87501 17.797 6.99746L15.7769 8.2298L13.9803 6.68986L13.9776 6.69145ZM10.0415 16.507L10.6071 17.4341C10.7629 17.6895 11.0972 17.7705 11.3527 17.6147C11.6081 17.4589 11.6891 17.1245 11.5333 16.8691L10.9677 15.942C10.8119 15.6866 10.4775 15.6056 10.2221 15.7614C9.96666 15.9172 9.88568 16.2516 10.0415 16.507ZM8.34538 13.7267L8.91094 14.6538C9.06676 14.9092 9.4011 14.9902 9.65654 14.8343C9.91198 14.6785 9.99296 14.3442 9.83713 14.0887L9.27157 13.1617C9.11574 12.9062 8.7814 12.8252 8.52596 12.9811C8.27053 13.1369 8.18955 13.4712 8.34538 13.7267ZM6.64924 10.9463L7.2148 11.8734C7.37063 12.1288 7.70497 12.2098 7.9604 12.054C8.21584 11.8982 8.29682 11.5638 8.14099 11.3084L7.57543 10.3813C7.4196 10.1259 7.08527 10.0449 6.82983 10.2007C6.57439 10.3565 6.49341 10.6909 6.64924 10.9463Z" fill="#A0A3A7"/>
</svg>
