<svg width="20" height="19" viewBox="0 0 20 19" fill="none" xmlns="http://www.w3.org/2000/svg">
<path fill-rule="evenodd" clip-rule="evenodd" d="M17.864 4.46691C18.4499 4.46691 18.9843 4.70119 19.3714 5.07813C19.7591 5.45227 20 5.97238 20 6.54405V8.98614H15.3171C13.9129 8.98614 12.7617 10.1055 12.7617 11.4708V11.9963C12.7617 13.3617 13.9129 14.481 15.3171 14.481H20V16.9229C20 17.4943 19.7591 18.0144 19.373 18.3901C18.9866 18.7657 18.4517 19 17.864 19H4.46667C2.01207 19 0 17.0433 0 14.6569V2.8004C0 1.25818 1.29318 0 2.87927 0H15.2063C15.5281 0 15.789 0.253677 15.789 0.566307C15.789 0.879192 15.5281 1.13287 15.2063 1.13287H2.87927C0.627559 1.13287 0.623622 4.46691 2.87927 4.46691H17.864ZM20 9.63437V13.8328H15.3171C14.2772 13.8328 13.4283 13.0075 13.4283 11.9963V11.4708C13.4283 10.4597 14.2772 9.63437 15.3171 9.63437H20ZM16.7102 10.4071C17.0861 10.4071 17.4268 10.5559 17.6735 10.7956C17.9215 11.0355 18.0743 11.3675 18.0743 11.7335C18.0743 12.0997 17.9215 12.4314 17.6748 12.6713C17.4281 12.9112 17.0869 13.0598 16.7102 13.0598C16.3339 13.0598 15.9924 12.9112 15.7457 12.6713L15.7262 12.6509C15.4913 12.4126 15.3462 12.0892 15.3462 11.7335C15.3462 11.3685 15.4992 11.037 15.7457 10.7968C15.994 10.5559 16.3349 10.4071 16.7102 10.4071ZM17.2037 11.2537C17.078 11.1312 16.9034 11.0554 16.7102 11.0554C16.5173 11.0554 16.3423 11.1314 16.2165 11.2534C16.0911 11.3757 16.0129 11.5459 16.0129 11.7335C16.0129 11.9144 16.0853 12.0785 16.2029 12.2L16.2171 12.213C16.343 12.3355 16.5178 12.4115 16.7102 12.4115C16.9029 12.4115 17.0774 12.3355 17.2034 12.213C17.3294 12.0905 17.4076 11.9208 17.4076 11.7335C17.4076 11.5464 17.3294 11.3764 17.2037 11.2537Z" fill="#A0A3A7"/>
</svg>
