<svg width="647" height="622" viewBox="0 0 647 622" fill="none" xmlns="http://www.w3.org/2000/svg">
<path d="M340.848 315.472C357.782 313.552 452.071 243.804 466.101 231.158C472.246 223.377 568.511 287.968 569.989 295.45C573.289 312.135 570.082 407.966 558.611 443.036C558.257 443.605 557.69 444.353 556.904 445.279C556.895 445.3 556.882 445.308 556.863 445.324C547.527 456.358 509.497 491.051 480.387 509.938C480.366 509.954 480.339 509.967 480.326 509.973C469.802 516.815 460.447 521.574 454.041 522.384C453.411 522.458 452.813 522.575 452.253 522.509C392.728 515.514 354.217 477.567 345.874 470.292C345.062 469.578 344.413 467.717 343.88 464.919L343.891 464.89C340.513 446.638 342.736 388.681 342.692 349.937C342.698 349.89 342.689 349.852 342.692 349.816C342.682 333.416 342.26 320.46 340.848 315.472Z" fill="url(#paint0_linear_1_73)"/>
<path d="M424.682 592.84C410.195 601.796 332.477 627.292 293.254 620.357C254.031 613.422 202.144 584.145 197.592 574.375C193.039 564.605 198.143 510.252 204.456 500.55C227.694 499.376 315.237 478.007 342.648 468.178C354.519 480.88 419.231 528.903 452.256 522.509C467.45 519.565 424.682 592.84 424.682 592.84Z" fill="url(#paint1_linear_1_73)"/>
<path d="M277.065 44.2918C301.986 40.1945 327.606 39.3196 353.309 41.9407C378.995 44.5682 404.765 50.6909 429.99 60.5816C459.682 72.2221 486.391 88.2058 509.654 107.528L514.73 118.065C511.118 116.335 462.933 102.36 437.981 112.81C433.395 103.868 333.659 62.1304 301.055 68.647C296.584 58.4064 277.532 44.6319 277.065 44.2918Z" fill="url(#paint2_linear_1_73)"/>
<path d="M509.655 107.519C549.827 140.864 579.755 184.132 597.173 232.123L586.315 219.403C577.278 193.17 541.127 140.678 514.73 118.056L509.655 107.519Z" fill="url(#paint3_linear_1_73)"/>
<path d="M597.173 232.135L597.171 232.145C620.462 296.281 621.392 368.817 594.529 437.335C589.637 449.81 583.982 461.763 577.617 473.135L577.613 473.145L572.842 472.964C572.842 472.964 565.42 447.894 558.611 443.041C570.082 407.971 573.288 312.14 569.989 295.455C575.858 282.966 593.923 241.526 586.316 219.415L597.173 232.135Z" fill="url(#paint4_linear_1_73)"/>
<path d="M159.699 91.3005C134.019 112.746 119.538 134.074 115.008 143.504C109.038 147.481 91.3254 162.7 74.9935 180.94C96.8855 144.574 125.998 114.311 159.699 91.3005Z" fill="url(#paint5_linear_1_73)"/>
<path d="M485.998 572.697C457.893 581.769 424.682 592.843 424.682 592.843C424.682 592.843 372.165 616.218 311.374 621.743C373.846 624.357 435.038 606.921 485.998 572.697Z" fill="url(#paint6_linear_1_73)"/>
<path d="M51.2988 362.311C45.9784 370.899 41.9179 386.238 42.4581 406.714C58.0927 464.746 99.2052 522.849 146.702 561.765C168.574 572.661 190.708 580.887 197.588 574.754C197.588 574.754 195.829 509.551 204.456 500.55C193.86 490.609 129.337 396.634 123.469 379.758C109.956 381.598 60.3927 376.551 51.2988 362.311Z" fill="url(#paint7_linear_1_73)"/>
<path d="M52.5876 225.024C58.31 210.426 65.095 196.545 72.797 183.443C73.5292 182.616 74.266 181.778 74.9937 180.96C91.3265 162.719 109.039 147.501 115.008 143.524C126.102 136.139 196.242 121.781 190.584 140.035C184.925 158.29 193.311 253.079 196.01 261.33C193.608 263.205 182.96 277.525 170.5 295.918C170.472 295.955 170.456 295.997 170.429 296.034C151.064 324.641 127.352 363.05 123.469 379.771C115.899 382.172 96.0753 380.334 78.7438 375.625C66.8322 372.405 56.0918 367.822 51.2963 362.322C43.9047 353.443 41.3293 318.957 41.184 287.04C41.1956 287.009 41.1875 286.969 41.1893 286.934C41.1472 278.204 41.2889 269.678 41.5662 261.911C41.5662 261.911 41.5599 261.896 41.5644 261.886C41.5725 261.865 41.5689 261.84 41.5716 261.806C41.6111 260.73 41.6506 259.679 41.6981 258.642C44.6181 247.37 48.2255 236.15 52.5876 225.024Z" fill="url(#paint8_linear_1_73)"/>
<path d="M190.584 140.024C194.64 128.118 283.313 70.8868 301.055 68.6487C333.659 62.1321 433.395 103.871 437.98 112.812C441.867 123.229 462.674 196.09 466.1 231.162C452.07 243.808 357.781 313.557 340.846 315.476C318.238 313.068 203.628 262.89 196.009 261.318C193.311 253.067 184.925 158.279 190.584 140.024Z" fill="url(#paint9_linear_1_73)"/>
<path d="M170.43 296.004C170.456 295.968 170.473 295.926 170.5 295.889C183.24 276.108 194.07 260.9 196.011 261.301C203.629 262.872 327.537 312.308 340.848 315.459C340.954 317.263 341.771 331.114 342.692 349.802C342.689 349.838 342.698 349.876 342.692 349.923C344.608 389.186 346.934 449.718 343.892 464.876L343.88 464.905C343.546 466.585 343.131 467.703 342.65 468.165C335.775 474.662 217.298 505.035 204.462 500.54C191.613 496.041 125.245 392.125 123.214 382.136C123.112 381.604 123.199 380.799 123.47 379.743C126.413 368.166 150.69 326.634 170.43 296.004Z" fill="#3C3658"/>
<path d="M437.981 112.8C462.935 102.349 511.119 116.325 514.73 118.054C541.127 140.676 577.278 193.168 586.315 219.401C593.922 241.514 577.903 282.522 572.034 295.014C570.937 297.354 570.264 298.671 570.264 298.671C562.421 289.758 480.819 236.621 466.1 231.149C462.674 196.078 441.868 123.217 437.981 112.8Z" fill="#3C3658"/>
<path d="M217.779 601.872C242.606 611.606 267.961 617.669 293.254 620.363C262.683 610.047 205.723 589.178 197.592 574.38C191.412 581.332 165.569 570.826 146.702 561.771C167.885 578.032 191.671 591.636 217.779 601.872Z" fill="#3C3658"/>
<path d="M452.252 522.512C452.704 522.461 453.172 522.392 453.666 522.299C460.357 521.098 469.783 516.5 480.325 509.976C480.339 509.97 480.366 509.956 480.386 509.941C508.041 492.807 543.329 462.423 556.862 445.327C556.881 445.311 556.894 445.304 556.903 445.282C557.521 444.506 558.09 443.76 558.61 443.039C565.42 447.892 576.87 474.543 576.87 474.543L567.935 489.27C565.161 493.564 562.281 497.758 559.314 501.867C557.826 503.924 556.31 505.952 554.779 507.966C554.014 508.972 553.24 509.964 552.453 510.962C551.681 511.953 550.887 512.936 550.095 513.919C549.306 514.894 548.512 515.879 547.704 516.842C546.51 518.293 545.289 519.733 544.059 521.155C542.301 523.188 540.537 525.181 538.735 527.148C537.928 528.041 537.12 528.913 536.298 529.788C535.736 530.396 535.164 530.998 534.597 531.589C527.054 539.518 519.114 546.964 510.798 553.927C509.838 554.726 508.889 555.518 507.925 556.302C506.972 557.079 506.005 557.861 505.032 558.632C504.06 559.403 503.091 560.161 502.112 560.916C501.132 561.671 500.153 562.426 499.164 563.177C497.193 564.658 495.205 566.12 493.19 567.557C490.659 569.372 488.106 571.14 485.515 572.856C485.106 573.139 484.685 573.417 484.262 573.697C484.183 573.75 484.117 573.795 484.036 573.847C456.583 586.088 426.79 594.328 424.675 592.85C421.445 590.575 436.979 568.894 452.252 522.512Z" fill="#3C3658"/>
<path d="M42.4571 406.716C44.119 390.55 47.4159 372.214 51.2979 362.313C41.182 348.472 40.5574 290.6 42.2687 259.051C29.3485 309.204 29.4069 359.163 42.4571 406.716Z" fill="#3C3658"/>
<path d="M159.698 91.3103C160.793 90.5646 161.904 89.8144 163.005 89.0831C164.121 88.3454 165.233 87.6195 166.341 86.9025C167.462 86.1792 168.581 85.4667 169.706 84.7695C173.088 82.6562 176.511 80.6192 179.968 78.6531C181.202 77.9514 182.432 77.2586 183.669 76.5802C184.71 76.005 185.759 75.4343 186.817 74.8788C186.922 74.824 187.042 74.7639 187.15 74.6975C188.108 74.186 189.06 73.6853 190.032 73.19C190.275 73.0581 190.53 72.9297 190.773 72.7969C191.851 72.2495 192.929 71.7003 194.003 71.1619C195.196 70.5634 196.381 69.9855 197.578 69.4121C198.773 68.8378 199.98 68.268 201.176 67.6937C203.586 66.5899 206.005 65.5005 208.428 64.4497C209.64 63.9301 210.866 63.4025 212.082 62.8973C213.314 62.3858 214.54 61.8832 215.764 61.3933C216.999 60.9051 218.232 60.4188 219.462 59.9414C220.707 59.4586 221.943 58.9956 223.189 58.537C225.056 57.8433 226.924 57.173 228.809 56.5215C230.679 55.8763 232.572 55.2401 234.465 54.629C242.358 52.0769 250.36 49.856 258.458 47.9733C261.688 47.2258 264.942 46.5348 268.207 45.8861C269.843 45.5675 271.483 45.2642 273.119 44.9707C274.432 44.7419 275.744 44.514 277.064 44.2977C277.53 44.6378 296.581 58.4123 301.054 68.652C283.311 70.89 194.639 128.121 190.583 140.027C171.253 136.13 121.412 142.036 115.006 143.516C118.596 131.982 134.019 112.755 159.698 91.3103Z" fill="#3C3658"/>
<path d="M197.592 574.392C195.85 562.822 197.592 519.125 203.549 500.134C214.866 504.618 308.444 483.392 343.88 464.932C358.877 492.688 423.527 521.929 452.256 522.525C417.623 529.36 357.34 497.917 342.041 472.541C305.835 488.641 237.866 506.423 208.429 506.438C201.421 532.429 198.588 558.044 197.592 574.392Z" fill="white"/>
<path d="M277.065 44.2977C287.27 53.5944 296.616 63.7076 300.475 68.6816C329.5 69.701 383.951 87.4687 438.497 114.194C470.702 106.392 514.73 118.07 514.73 118.07C514.73 118.07 478.932 102.765 437.981 111.274C413.166 94.7427 334.36 63.7991 301.592 66.5432C298.479 62.1543 289.224 49.9915 277.065 44.2977Z" fill="white"/>
<path d="M123.468 379.754C109.786 391.346 48.733 381.151 51.2959 362.301C68.5907 375.89 116.587 380.529 123.468 379.754Z" fill="white"/>
<path d="M196.01 261.331C181.774 225.439 185.001 154.053 180.364 149.526C175.725 145.001 145.703 138.266 115.008 143.524C132.996 139.052 175.872 132.972 190.585 140.035C192.246 128.403 284.616 68.8607 301.056 68.6597C244.034 95.1075 198.656 133.68 194.726 141.512C190.795 149.345 186.101 233.157 196.01 261.331Z" fill="white"/>
<path d="M558.611 443.033C566.077 383.02 570.513 335.016 570.265 298.677C588.326 318.736 570.265 447.035 558.611 443.033Z" fill="white"/>
<path d="M570.265 298.683C531.409 267.487 464.811 234.45 464.811 234.45C464.811 234.45 367.926 309.081 340.848 315.475C385.884 291.515 458.287 229.558 458.287 229.558C458.287 229.558 456.84 175.411 437.981 112.81C458.653 165.311 466.876 229.183 466.876 229.183C466.876 229.183 547.322 271.824 570.265 298.683Z" fill="white"/>
<path d="M570.265 298.682C531.409 267.486 465.229 235.825 465.229 235.825C465.229 235.825 371.431 315.474 340.848 315.474C368.632 306.517 462.54 231.195 462.54 231.195C462.54 231.195 453.899 154.758 437.981 112.81C458.653 165.311 466.876 229.183 466.876 229.183C466.876 229.183 547.322 271.823 570.265 298.682Z" fill="white"/>
<path d="M558.611 443.033C566.077 383.02 570.513 335.016 570.265 298.677C576.871 316.957 569.919 416.284 558.611 443.033Z" fill="white"/>
<path d="M197.591 574.392C194.596 570.631 196.127 520.343 203.549 500.134C214.866 504.618 308.444 483.392 343.88 464.932C358.877 492.688 423.526 521.929 452.256 522.525C418.271 526.162 358.311 493.898 343.01 468.523C306.804 484.623 235.564 503.233 206.126 503.246C199.12 529.237 198.587 558.044 197.591 574.392Z" fill="white"/>
<path d="M123.468 379.754C123.172 384.099 61.9269 381.151 51.2959 362.301C68.5907 375.89 116.587 380.529 123.468 379.754Z" fill="white"/>
<path d="M196.01 261.331C182.836 223.239 191.084 148.236 186.446 143.71C181.808 139.186 145.726 136.017 115.008 143.524C132.996 139.052 175.203 132.661 190.585 140.035C193.078 126.195 284.616 68.8607 301.056 68.6597C244.034 95.1075 200.147 134.784 194.726 141.512C190.669 151.402 186.101 233.157 196.01 261.331Z" fill="white"/>
<path d="M277.065 44.2977C288.871 52.5346 296.912 62.2485 301.055 68.652C329.376 66.3485 382.595 82.885 437.981 112.815C471.256 103.688 514.73 118.07 514.73 118.07C514.73 118.07 478.932 102.765 437.981 111.274C413.166 94.7427 334.36 63.7991 301.592 66.5432C298.479 62.1543 289.224 49.9915 277.065 44.2977Z" fill="white"/>
<path d="M452.256 522.508C445.357 546.034 432.025 571.326 424.677 592.843C402.028 604.656 330.66 621.74 311.375 621.74C331.248 618.186 387.635 607.855 423.124 592.104C429.42 577.499 440.651 550.936 452.256 522.508Z" fill="white"/>
<path d="M123.468 379.769C124.819 394.61 190.602 493.358 203.548 500.129C188.987 505.549 113.805 394.03 123.468 379.769Z" fill="white"/>
<path opacity="0.7" d="M130.939 379.767C131.717 369.526 191.642 275.617 199.393 270.607C208.265 275.277 327.477 316.985 332.535 322.046C337.593 327.105 337.593 357.072 337.593 357.072C337.593 357.072 333.129 333.79 327.383 327.952C321.637 322.114 209.497 277.901 200.507 282.571C191.386 287.31 154.679 344.229 130.939 379.767Z" fill="white"/>
<path opacity="0.7" d="M123.003 136.129C154.579 91.3109 230.228 60.0183 270.848 50.7692C215.871 56.3409 144.548 96.8315 123.003 136.129Z" fill="white"/>
<path opacity="0.7" d="M471.432 223.958C469.653 199.749 453.324 133.412 446.081 118.073C468.238 111.57 513.153 122.949 513.153 122.949L540.652 150.316L513.153 125.506C508.305 122.235 464.674 118.529 454.38 122.158C456.428 131.275 470.509 196.285 471.432 223.958Z" fill="white"/>
<path opacity="0.7" d="M432.151 585.407C440.267 569.547 450.532 543.573 455.405 527.481C485.999 514.838 534.684 477.24 558.611 450.209C562.809 457.894 568.264 464.916 568.264 464.916C568.264 464.916 562.109 460.14 558.611 456.646C538.704 482.849 474.08 529.488 458.008 532.98C454.263 544.856 444.972 566.738 432.151 585.407Z" fill="white"/>
<path d="M586.316 219.415C599.72 239.472 575.993 296.076 570.265 298.685C577.768 281.167 593.063 241.544 586.316 219.415Z" fill="white"/>
<path fill-rule="evenodd" clip-rule="evenodd" d="M506.328 448.222C474.641 478.832 441.43 508.249 403.889 531.306C353.101 562.509 295.82 581.242 239.143 599.698C271.974 610.636 307.512 613.331 341.616 607.464C360.913 604.148 379.675 598.155 397.867 590.919C456.116 567.753 509.114 531.496 551.819 485.602C507.629 513.586 460.203 536.458 410.786 553.608C455.597 532.889 495.245 502.481 532.349 469.92C552.032 452.649 571.306 434.474 585.739 412.621C602.704 386.922 608.812 359.715 607.16 329.376C590.718 349.318 577.437 372.138 560.287 391.942C543.275 411.602 525.02 430.162 506.328 448.222Z" fill="white"/>
<path fill-rule="evenodd" clip-rule="evenodd" d="M221.44 460.179C194.935 478.077 165.845 492.141 135.357 501.796C129.053 503.793 122.421 505.618 115.904 504.49C106.704 502.895 99.5313 495.768 93.6995 488.474C87.1885 480.34 74.2583 468.365 89.589 465.521C101.293 463.351 120.17 471.146 132.599 471.923C162.598 473.811 192.984 469.879 221.44 460.179Z" fill="white"/>
<path fill-rule="evenodd" clip-rule="evenodd" d="M597.394 271.119C557.527 356.252 557.394 378.722 455.986 443.821C395.164 482.83 268.21 571.986 199.748 594.19C177.544 583.58 155.189 569.347 136.537 553.735C221.077 515.451 298.298 467.021 363.075 400.598C301.136 433.482 229.837 448.634 159.861 443.821C247.568 412.129 322.224 350.254 379.287 276.582C421.393 222.156 460.624 153.596 485.465 88.4964C523.616 113.867 556.486 152.032 579.019 192.164C579.019 192.164 577.164 193.297 577.164 193.36C571.562 202.652 565.765 211.811 559.766 220.769C522.864 276.317 489.457 307.618 455.986 334.105C509.952 325.879 542.507 318.101 597.394 271.119Z" fill="white"/>
<path fill-rule="evenodd" clip-rule="evenodd" d="M494.048 25.5212C493.973 19.0389 493.438 12.0903 489.425 6.99541C485.464 1.96385 478.689 -0.258312 472.293 0.0237775C465.897 0.305867 459.794 2.78133 454.106 5.72312C439.086 13.495 425.921 24.8304 416.007 38.5319C428.194 27.3001 444.849 21.0481 461.418 21.4798C463.507 21.5374 465.655 21.7101 467.537 22.6197C472.621 25.0837 473.847 31.7329 473.766 37.3805C473.634 47.34 471.429 57.2707 467.347 66.3551C468.764 57.3225 469.12 48.1229 468.412 39.0039C466.317 49.3722 460.232 59.4065 455.027 68.6118C455.068 68.5427 485.263 86.1647 485.263 86.1647C485.263 86.1647 490.577 67.2647 491.59 60.2873C494.054 43.2583 494.18 37.2481 494.048 25.5212Z" fill="#3C3658"/>
<path fill-rule="evenodd" clip-rule="evenodd" d="M105.432 546.86C90.1131 552.346 74.0627 557.464 57.8742 555.812C55.3527 555.553 52.6124 555.006 51.0063 553.043C49.7167 551.466 49.4346 549.295 49.5094 547.257C49.993 533.539 63.0325 524.12 74.7134 516.913C69.1867 523.683 64.6386 531.253 61.2478 539.307C71.7196 541.339 82.5485 539.273 92.8246 536.417C114.045 530.528 134.182 521.322 154.124 511.979C190.75 494.835 227.099 477.109 263.161 458.814C245.354 474.979 224.411 487.679 201.838 495.992C234.526 483.995 266.01 468.733 295.676 450.501C234.658 488.013 173.491 522.497 105.432 546.86Z" fill="#3C3658"/>
<path fill-rule="evenodd" clip-rule="evenodd" d="M287.736 567.83C287.736 567.83 502.406 500.025 613.072 253.813L646.859 233.836C646.859 233.836 552.405 480.106 287.736 567.83Z" fill="#3C3658"/>
<path fill-rule="evenodd" clip-rule="evenodd" d="M513.972 32.0944C513.972 32.0944 475.856 201.647 341.472 330.902C341.472 330.902 467.542 240.921 533.223 26.0957L513.972 32.0944Z" fill="url(#paint10_linear_1_73)"/>
<path fill-rule="evenodd" clip-rule="evenodd" d="M432.973 432.245C392.081 473.614 341.322 501.858 293.88 532.979C347.776 502.796 402.219 470.304 452.61 433.085C484.457 409.562 516.874 385.464 540.8 352.062C492.027 421.445 426.427 474.069 356.607 514.373C323.182 533.67 288.6 550.342 253.213 564.263C235.343 571.292 217.266 577.619 199.028 583.226C186.173 587.181 166.156 597.054 153.238 594.377C156.191 583.531 173.128 575.615 181.792 571.568C202.471 561.914 223.772 554.004 244.445 544.234C286.079 524.557 326.775 502.237 366.256 477.414C388.909 463.171 411.165 448.105 432.973 432.245Z" fill="url(#paint11_linear_1_73)"/>
<path fill-rule="evenodd" clip-rule="evenodd" d="M107.89 579.001C95.3575 587.982 80.9594 594.349 65.8821 597.585C90.2626 595.927 113.618 587.55 136.6 579.254C119.859 588.287 103.026 597.366 85.0641 603.629C67.1025 609.893 47.7994 613.278 28.9685 610.584C23.7988 609.841 18.4103 608.5 14.6683 604.861C10.9205 601.223 9.60223 594.649 13.114 590.78C12.1871 595.149 13.4767 599.933 16.4761 603.244C11.0761 597.291 22.5553 579.185 26.4066 575.063C29.3887 571.88 38.9568 562.461 41.9274 568.443C43.9654 572.553 38.8763 579.819 40.2234 584.522C42.7162 593.227 56.7745 589.997 63.7634 589.473C78.8984 588.339 93.8607 584.798 107.89 579.001Z" fill="url(#paint12_linear_1_73)"/>
<path fill-rule="evenodd" clip-rule="evenodd" d="M66.7572 467.816C67.8683 469.9 27.4548 499.536 0 556.127C0 556.127 17.6795 495.858 58.2601 450.51L66.7572 467.816Z" fill="url(#paint13_linear_1_73)"/>
<path fill-rule="evenodd" clip-rule="evenodd" d="M504.888 295.431C532.936 280.595 558.894 261.816 581.76 239.819C583.228 238.403 584.714 236.935 585.577 235.092C586.383 233.365 586.59 231.425 586.683 229.52C587.016 222.565 586.389 201.783 576.049 212.197C567.823 220.481 561.49 231.932 554.288 241.177C539.245 260.48 523.201 279.127 504.888 295.431Z" fill="black"/>
<defs>
<linearGradient id="paint0_linear_1_73" x1="560.342" y1="254.891" x2="453.005" y2="472.864" gradientUnits="userSpaceOnUse">
<stop stop-color="#1F531B"/>
<stop offset="0.9951" stop-color="#67F962"/>
</linearGradient>
<linearGradient id="paint1_linear_1_73" x1="443.263" y1="480.983" x2="412.262" y2="616.102" gradientUnits="userSpaceOnUse">
<stop stop-color="#1F531B"/>
<stop offset="0.9951" stop-color="#67F962"/>
</linearGradient>
<linearGradient id="paint2_linear_1_73" x1="503.51" y1="46.9324" x2="494.523" y2="117.773" gradientUnits="userSpaceOnUse">
<stop stop-color="#1F531B"/>
<stop offset="0.9951" stop-color="#67F962"/>
</linearGradient>
<linearGradient id="paint3_linear_1_73" x1="593.042" y1="117.923" x2="544.098" y2="206.415" gradientUnits="userSpaceOnUse">
<stop stop-color="#1F531B"/>
<stop offset="0.9951" stop-color="#67F962"/>
</linearGradient>
<linearGradient id="paint4_linear_1_73" x1="612.017" y1="240.6" x2="510.899" y2="298.103" gradientUnits="userSpaceOnUse">
<stop stop-color="#1F531B"/>
<stop offset="0.9951" stop-color="#67F962"/>
</linearGradient>
<linearGradient id="paint5_linear_1_73" x1="155.7" y1="98.7851" x2="126.464" y2="169.901" gradientUnits="userSpaceOnUse">
<stop stop-color="#1F531B"/>
<stop offset="0.9951" stop-color="#67F962"/>
</linearGradient>
<linearGradient id="paint6_linear_1_73" x1="477.755" y1="576.814" x2="472.8" y2="621.995" gradientUnits="userSpaceOnUse">
<stop stop-color="#1F531B"/>
<stop offset="0.9951" stop-color="#67F962"/>
</linearGradient>
<linearGradient id="paint7_linear_1_73" x1="196.806" y1="380.225" x2="115.88" y2="537.574" gradientUnits="userSpaceOnUse">
<stop stop-color="#1F531B"/>
<stop offset="0.9951" stop-color="#67F962"/>
</linearGradient>
<linearGradient id="paint8_linear_1_73" x1="188.701" y1="152" x2="84.5266" y2="318.294" gradientUnits="userSpaceOnUse">
<stop stop-color="#1F531B"/>
<stop offset="0.9951" stop-color="#67F962"/>
</linearGradient>
<linearGradient id="paint9_linear_1_73" x1="453.003" y1="88.628" x2="381.976" y2="293.565" gradientUnits="userSpaceOnUse">
<stop stop-color="#1F531B"/>
<stop offset="0.9951" stop-color="#67F962"/>
</linearGradient>
<linearGradient id="paint10_linear_1_73" x1="524.171" y1="51.5459" x2="397.797" y2="256.196" gradientUnits="userSpaceOnUse">
<stop stop-color="#53B34C"/>
<stop offset="0.2834" stop-color="#287A22"/>
<stop offset="0.8794" stop-color="#83EF8A"/>
<stop offset="0.9951" stop-color="#67F962"/>
</linearGradient>
<linearGradient id="paint11_linear_1_73" x1="522.504" y1="372.333" x2="470.779" y2="584.897" gradientUnits="userSpaceOnUse">
<stop stop-color="#53B34C"/>
<stop offset="0.2834" stop-color="#287A22"/>
<stop offset="0.8794" stop-color="#83EF8A"/>
<stop offset="0.9951" stop-color="#67F962"/>
</linearGradient>
<linearGradient id="paint12_linear_1_73" x1="130.674" y1="570.255" x2="124.968" y2="611.215" gradientUnits="userSpaceOnUse">
<stop stop-color="#53B34C"/>
<stop offset="0.2834" stop-color="#287A22"/>
<stop offset="0.8794" stop-color="#83EF8A"/>
<stop offset="0.9951" stop-color="#67F962"/>
</linearGradient>
<linearGradient id="paint13_linear_1_73" x1="63.6271" y1="459.329" x2="19.9377" y2="530.439" gradientUnits="userSpaceOnUse">
<stop stop-color="#53B34C"/>
<stop offset="0.2834" stop-color="#287A22"/>
<stop offset="0.8794" stop-color="#83EF8A"/>
<stop offset="0.9951" stop-color="#67F962"/>
</linearGradient>
</defs>
</svg>
