<?xml version="1.0" encoding="UTF-8"?>
<svg xmlns="http://www.w3.org/2000/svg" xmlns:xlink="http://www.w3.org/1999/xlink" width="150px" height="150px" viewBox="0 0 150 150" version="1.1">
<g id="surface1">
<path style=" stroke:none;fill-rule:nonzero;fill:rgb(96.078432%,90.196079%,50.196081%);fill-opacity:1;" d="M 27.40625 52.03125 C 25.648438 54.113281 22.835938 55.753906 20.023438 55.519531 C 19.671875 52.707031 21.050781 49.71875 22.660156 47.871094 C 24.417969 45.734375 27.496094 44.210938 29.984375 44.089844 C 30.277344 47.023438 29.136719 49.894531 27.40625 52.03125 Z M 29.957031 56.074219 C 25.882812 55.839844 22.398438 58.390625 20.464844 58.390625 C 18.5 58.390625 15.542969 56.191406 12.316406 56.25 C 8.128906 56.308594 4.230469 58.683594 2.09375 62.460938 C -2.300781 70.019531 0.949219 81.21875 5.199219 87.371094 C 7.277344 90.417969 9.769531 93.757812 13.050781 93.640625 C 16.15625 93.523438 17.386719 91.613281 21.136719 91.613281 C 24.917969 91.613281 26 93.640625 29.28125 93.582031 C 32.683594 93.523438 34.820312 90.535156 36.902344 87.488281 C 39.273438 84.03125 40.242188 80.65625 40.300781 80.480469 C 40.242188 80.421875 33.738281 77.9375 33.679688 70.429688 C 33.621094 64.160156 38.804688 61.171875 39.039062 60.996094 C 36.109375 56.660156 31.539062 56.191406 29.957031 56.074219 Z M 53.484375 47.578125 L 53.484375 93.253906 L 60.574219 93.253906 L 60.574219 77.644531 L 70.390625 77.644531 C 79.355469 77.644531 85.65625 71.484375 85.65625 62.578125 C 85.65625 53.671875 79.472656 47.578125 70.625 47.578125 Z M 60.574219 53.554688 L 68.75 53.554688 C 74.902344 53.554688 78.417969 56.835938 78.417969 62.609375 C 78.417969 68.378906 74.902344 71.691406 68.722656 71.691406 L 60.574219 71.691406 Z M 98.605469 93.605469 C 103.0625 93.605469 107.191406 91.355469 109.066406 87.78125 L 109.214844 87.78125 L 109.214844 93.253906 L 115.777344 93.253906 L 115.777344 70.519531 C 115.777344 63.925781 110.503906 59.679688 102.386719 59.679688 C 94.855469 59.679688 89.289062 63.984375 89.085938 69.902344 L 95.472656 69.902344 C 96 67.089844 98.605469 65.246094 102.183594 65.246094 C 106.519531 65.246094 108.949219 67.265625 108.949219 70.988281 L 108.949219 73.507812 L 100.101562 74.035156 C 91.867188 74.539062 87.414062 77.902344 87.414062 83.761719 C 87.414062 89.679688 92.015625 93.605469 98.605469 93.605469 Z M 100.511719 88.191406 C 96.730469 88.191406 94.328125 86.375 94.328125 83.585938 C 94.328125 80.714844 96.644531 79.050781 101.070312 78.78125 L 108.949219 78.289062 L 108.949219 80.867188 C 108.949219 85.144531 105.316406 88.191406 100.511719 88.191406 Z M 124.539062 105.683594 C 131.453125 105.683594 134.707031 103.046875 137.546875 95.046875 L 150 60.117188 L 142.792969 60.117188 L 134.441406 87.101562 L 134.296875 87.101562 L 125.945312 60.117188 L 118.53125 60.117188 L 130.542969 93.371094 L 129.898438 95.398438 C 128.816406 98.820312 127.058594 100.144531 123.921875 100.144531 C 123.367188 100.144531 122.28125 100.085938 121.84375 100.027344 L 121.84375 105.507812 C 122.253906 105.625 124.011719 105.683594 124.539062 105.683594 Z M 124.539062 105.683594 "/>
</g>
</svg>
