<svg width="17" height="25" viewBox="0 0 17 25" fill="none" xmlns="http://www.w3.org/2000/svg">
<path fill-rule="evenodd" clip-rule="evenodd" d="M0.0350552 12.4614L4.57141 0.445639C4.64537 0.188182 4.88979 0 5.18028 0L14.1707 0.0020678C14.2757 0.00413586 14.3818 0.0279167 14.4783 0.0816825C14.7806 0.246082 14.8878 0.6152 14.7174 0.906788L10.6955 7.77852L16.3704 7.77955C16.5012 7.78059 16.6331 7.81884 16.7456 7.90053C17.0243 8.10111 17.0833 8.48057 16.8764 8.7494L4.5675 24.7293C4.42064 24.9433 4.14301 25.0498 3.87397 24.9774C3.53844 24.8864 3.34336 24.5514 3.43771 24.2288L6.62668 13.2771L0.629342 13.2761C0.557522 13.275 0.485702 13.2637 0.414955 13.2388C0.0880171 13.1241 -0.0802816 12.7756 0.0376345 12.4603L0.0350552 12.4614Z" fill="#A0A3A7"/>
</svg>
