<svg width="16" height="12" viewBox="0 0 16 12" fill="none" xmlns="http://www.w3.org/2000/svg">
<rect width="16" height="12" rx="1" fill="#1E3A8A"/>
<path d="M0 0L16 0L16 1.5L0 1.5L0 0Z" fill="#EF4444"/>
<path d="M0 1.5L16 1.5L16 3L0 3L0 1.5Z" fill="#F3F4F6"/>
<path d="M0 3L16 3L16 4.5L0 4.5L0 3Z" fill="#EF4444"/>
<path d="M0 4.5L16 4.5L16 6L0 6L0 4.5Z" fill="#F3F4F6"/>
<path d="M0 6L16 6L16 7.5L0 7.5L0 6Z" fill="#EF4444"/>
<path d="M0 7.5L16 7.5L16 9L0 9L0 7.5Z" fill="#F3F4F6"/>
<path d="M0 9L16 9L16 10.5L0 10.5L0 9Z" fill="#EF4444"/>
<path d="M0 10.5L16 10.5L16 12L0 12L0 10.5Z" fill="#F3F4F6"/>
<rect width="6.4" height="4.8" fill="#1E3A8A"/>
<path d="M0 0L6.4 0L6.4 0.6L0 0.6L0 0Z" fill="#F3F4F6"/>
<path d="M0 0.6L6.4 0.6L6.4 1.2L0 1.2L0 0.6Z" fill="#EF4444"/>
<path d="M0 1.2L6.4 1.2L6.4 1.8L0 1.8L0 1.2Z" fill="#F3F4F6"/>
<path d="M0 1.8L6.4 1.8L6.4 2.4L0 2.4L0 1.8Z" fill="#EF4444"/>
<path d="M0 2.4L6.4 2.4L6.4 3L0 3L0 2.4Z" fill="#F3F4F6"/>
<path d="M0 3L6.4 3L6.4 3.6L0 3.6L0 3Z" fill="#EF4444"/>
<path d="M0 3.6L6.4 3.6L6.4 4.2L0 4.2L0 3.6Z" fill="#F3F4F6"/>
<path d="M0 4.2L6.4 4.2L6.4 4.8L0 4.8L0 4.2Z" fill="#EF4444"/>
</svg>
