<svg width="23" height="22" viewBox="0 0 23 22" fill="none" xmlns="http://www.w3.org/2000/svg">
<path d="M22.9433 11.3366C22.8389 11.6049 22.5868 11.7749 22.2998 11.7749H20.2911V19.3878C20.2911 20.8281 19.1606 22 17.7606 22H14.7607V16.1673C14.7607 14.9328 13.7868 13.9309 12.5868 13.9309H10.4129C9.21286 13.9309 8.23894 14.9328 8.23894 16.1673V22H5.23901C3.83902 22 2.70856 20.8281 2.70856 19.3878V11.7749H0.699844C0.412901 11.7749 0.160713 11.6049 0.0563651 11.3366C-0.0566785 11.0682 0.00419111 10.7551 0.204191 10.5493L9.69986 0.744748C10.6651 -0.248249 12.3347 -0.248249 13.3 0.744748L16.4828 4.02792V2.29244C16.4828 2.04196 16.6741 1.84515 16.9175 1.84515H19.6828C19.9262 1.84515 20.1175 2.04196 20.1175 2.29244V7.7853L22.7958 10.5495C22.9958 10.7553 23.0567 11.0684 22.9436 11.3368L22.9433 11.3366Z" fill="#A0A3A7"/>
</svg>
