<svg width="22" height="22" viewBox="0 0 22 22" fill="none" xmlns="http://www.w3.org/2000/svg">
<path d="M20.2688 10.2165C21.1008 9.69081 21.6064 8.78916 21.5016 7.82774C21.3491 6.42797 19.9614 5.43148 18.4023 5.60194C15.1243 5.96026 14.1716 9.26571 11.2219 10.7718C12.4594 7.53308 16.1581 6.21984 16.1581 2.84501C16.1581 1.27375 14.8867 0 13.3179 0C12.2405 0 11.3031 0.601275 10.822 1.48682C10.3405 0.601015 9.40341 0 8.32596 0C6.7575 0 5.48603 1.27375 5.48603 2.84501C5.48603 6.19749 9.13574 7.49566 10.3971 10.6974C7.76856 9.16099 6.75906 6.3139 3.63718 5.92752C2.08039 5.73471 0.688052 6.63533 0.527238 7.93896C0.416743 8.83463 0.916305 9.68717 1.74424 10.1959C0.817482 10.4872 0.125721 11.1927 0.0152254 12.0881C-0.145589 13.3917 0.985818 14.6047 2.54261 14.7975C5.46035 15.1587 7.09573 12.984 9.68795 12.0052C9.05118 12.5265 7.78204 13.5809 7.29545 13.9811C5.20668 15.6994 2.98614 17.9431 2.60589 20.7549C2.55869 21.1046 2.53171 21.3045 2.53171 21.3045C3.04424 21.6324 3.68309 21.6927 4.24802 21.4666L4.33932 21.43C4.34217 20.5119 4.47601 19.6664 4.79375 18.8004C5.29538 17.4333 6.27039 16.157 7.24409 15.0877C8.0601 14.1915 9.00294 13.2657 9.93099 12.4597C8.86624 14.9877 6.64908 16.7273 7.08717 19.5604C7.32735 21.1132 8.67845 22.1926 10.1053 21.9712C11.0855 21.8192 11.8462 21.0927 12.1487 20.1495C12.7219 20.9568 13.6663 21.4185 14.6465 21.2665C16.0733 21.0451 17.0354 19.6069 16.7952 18.0541C16.327 15.0259 13.3467 14.125 11.5876 11.7124C14.6001 12.6444 16.2596 15.4733 19.439 15.1259C20.9984 14.9555 22.1386 13.6825 21.9864 12.2827C21.8821 11.3211 21.1945 10.5498 20.2688 10.2165Z" fill="#A0A3A7"/>
</svg>
