<svg width="22" height="22" viewBox="0 0 22 22" fill="none" xmlns="http://www.w3.org/2000/svg">
<path d="M14.41 8.59139L12.333 9.45091L12.2687 9.39964C11.9691 9.16138 11.6112 9.0136 11.2342 8.97037L11.1518 8.96132L10.2923 6.88537C10.2782 6.85219 10.2591 6.82304 10.234 6.7969L9.02862 5.55736C8.97635 5.50307 8.90296 5.47191 8.82756 5.47191C8.79036 5.47191 8.75417 5.47895 8.71999 5.49302C8.61343 5.53725 8.54507 5.6408 8.54708 5.7564L8.5702 7.48451C8.57121 7.5197 8.57824 7.55488 8.59131 7.58805L9.45084 9.66501L9.39956 9.72935C9.16131 10.0289 9.01353 10.3868 8.97029 10.7638L8.96124 10.8462L6.88529 11.7058C6.85211 11.7198 6.82296 11.7389 6.79682 11.7641L5.55728 12.9694C5.47485 13.0499 5.44972 13.1715 5.49395 13.2781C5.53718 13.3836 5.63972 13.451 5.75733 13.451L7.48544 13.4278C7.52062 13.4268 7.55581 13.4198 7.58898 13.4067L9.66594 12.5472L9.73028 12.5985C10.0299 12.8367 10.3878 12.9845 10.7647 13.0278L10.8472 13.0368L11.7067 15.1128C11.7208 15.1459 11.7399 15.1751 11.765 15.2012L12.9704 16.4408C13.0226 16.4951 13.096 16.5262 13.1714 16.5262C13.2086 16.5262 13.2448 16.5192 13.279 16.5051C13.3856 16.4609 13.4539 16.3573 13.4519 16.2417L13.4288 14.5136C13.4278 14.4784 13.4207 14.4432 13.4077 14.4101L12.5481 12.3331L12.5994 12.2688C12.8377 11.9692 12.9855 11.6113 13.0287 11.2343L13.0377 11.1519L15.1137 10.2924C15.1469 10.2783 15.176 10.2592 15.2022 10.2341L16.4417 9.02869C16.5241 8.94827 16.5493 8.82662 16.505 8.72007C16.4618 8.61652 16.3573 8.54715 16.2417 8.54715L14.5135 8.57028C14.4784 8.57128 14.4432 8.57832 14.41 8.59139ZM11 12.4819C10.1827 12.4819 9.51818 11.8174 9.51818 11.0001C9.51818 10.1827 10.1827 9.51824 11 9.51824C11.8173 9.51824 12.4818 10.1827 12.4818 11.0001C12.4818 11.8174 11.8173 12.4819 11 12.4819ZM11 0C4.9351 0 0 4.9351 0 11C0 17.0649 4.9351 22 11 22C17.0659 22 22 17.0649 22 11C22 4.93407 17.0649 0 11 0ZM18.37 18.37C16.4016 20.3383 13.7849 21.423 11 21.423C8.21642 21.423 5.59857 20.3393 3.63004 18.37C1.66166 16.4016 0.576997 13.7849 0.576997 11C0.576997 8.21642 1.66071 5.59857 3.63004 3.63004C5.59841 1.66166 8.21513 0.576997 11 0.576997C13.7836 0.576997 16.4014 1.66071 18.37 3.63004C20.3383 5.59841 21.423 8.21513 21.423 11C21.423 13.7836 20.3393 16.4014 18.37 18.37ZM11 1.13907C5.56228 1.13907 1.13907 5.56254 1.13907 11C1.13907 16.4375 5.56254 20.8609 11 20.8609C16.4375 20.8609 20.8609 16.4375 20.8609 11C20.8609 5.56254 16.4375 1.13907 11 1.13907ZM17.7276 4.66976L17.8261 4.77834C18.4514 5.46397 18.9681 6.23604 19.3632 7.07346L19.4256 7.20716L17.4622 8.02047L17.4039 7.90184C17.1174 7.31272 16.7504 6.76483 16.3121 6.27225L16.2237 6.17373L17.7276 4.66976ZM11.2805 1.76239L11.4273 1.76943C12.3562 1.81165 13.268 1.99361 14.1375 2.30828L14.2753 2.35855L13.462 4.32291L13.3363 4.27968C12.717 4.06354 12.0696 3.93487 11.4121 3.89666L11.2804 3.88962L11.2805 1.76239ZM4.77708 4.17311C5.46271 3.54781 6.23478 3.03109 7.0722 2.63599L7.20591 2.57366L8.01921 4.53702L7.90058 4.59533C7.31147 4.88184 6.76358 5.24879 6.27099 5.68709L6.17247 5.77556L4.66955 4.27264L4.77813 4.17412L4.77708 4.17311ZM1.76908 10.5728C1.8113 9.64393 1.99326 8.73214 2.30794 7.8626L2.3582 7.72487L4.32256 8.53817L4.27934 8.66384C4.0632 9.28309 3.93453 9.93053 3.89631 10.588L3.88927 10.7197H1.76306L1.77009 10.5729L1.76908 10.5728ZM4.2723 17.3305L4.17378 17.222C3.54848 16.5363 3.03175 15.7643 2.63666 14.9269L2.57433 14.7931L4.53769 13.9798L4.59599 14.0985C4.88251 14.6876 5.24945 15.2355 5.68776 15.7281L5.77623 15.8266L4.2723 17.3305ZM10.7194 20.2379L10.5726 20.2309C9.6437 20.1887 8.7319 20.0067 7.86237 19.692L7.72464 19.6418L8.53794 17.6774L8.6636 17.7206C9.28286 17.9368 9.93029 18.0654 10.5878 18.1037L10.7195 18.1107L10.7194 20.2379ZM17.2228 17.8272C16.5372 18.4525 15.7651 18.9692 14.9277 19.3643L14.794 19.4266L13.9807 17.4633L14.0993 17.405C14.6884 17.1185 15.2363 16.7515 15.7289 16.3132L15.8274 16.2248L17.3303 17.7277L17.2218 17.8262L17.2228 17.8272ZM10.9999 17.5558C7.38582 17.5558 4.44421 14.6152 4.44421 11.0001C4.44421 7.38497 7.38479 4.4444 10.9999 4.4444C14.615 4.4444 17.5556 7.38497 17.5556 11.0001C17.5556 14.6152 14.615 17.5558 10.9999 17.5558ZM19.6927 14.1378L19.6424 14.2755L17.6781 13.4622L17.7213 13.3366C17.9374 12.7173 18.0661 12.0699 18.1043 11.4124L18.1113 11.2807H20.2376L20.2305 11.4275C20.1883 12.3564 20.0063 13.2682 19.6917 14.1377L19.6927 14.1378Z" fill="#A0A3A7"/>
</svg>
