<svg width="23" height="26" viewBox="0 0 23 26" fill="none" xmlns="http://www.w3.org/2000/svg">
<path d="M21.7958 6.12633C19.6769 7.12278 18.2487 7.00284 17.0166 5.7296C15.9151 4.60398 15.8497 3.14621 16.8672 1.23634C16.4471 0.775022 16.055 0.33215 15.7564 0C10.9305 4.74238 6.21652 9.38325 1.57725 13.9411C1.93197 14.3748 2.31468 14.836 2.6694 15.2697C4.62965 14.1994 6.00182 14.2363 7.2153 15.3435C8.51281 16.5337 8.65281 18.01 7.65403 20.1781C8.08341 20.5749 8.51281 20.9808 8.84885 21.2945C13.5908 16.6075 18.2861 11.9759 23 7.32577C22.6359 6.95671 22.2159 6.54153 21.7958 6.12633ZM8.62481 14.9652C8.39145 14.9929 7.88739 14.5038 7.86873 14.2178C7.85005 13.8949 8.24211 13.5535 8.65281 12.9077C9.07287 13.5443 9.50229 13.9042 9.45559 14.1994C9.41824 14.5038 8.95153 14.9191 8.62481 14.9652ZM11.4999 14.2086C11.2198 12.5386 10.3143 11.6345 8.48479 11.5053C9.26896 10.8687 10.0063 10.5365 10.2864 9.97375C10.5571 9.44785 10.3423 8.69127 10.4731 7.88857C11.6772 8.98652 12.9467 9.20796 14.4495 8.51597C13.6654 10.0383 13.9455 11.2193 15.1216 12.3726C13.5068 12.2434 12.256 12.6309 11.4999 14.2086ZM15.8497 8.29454C15.439 7.77787 14.9537 7.42726 14.9817 7.14124C15.0189 6.80909 15.523 6.54153 15.8217 6.23705C16.1111 6.55074 16.5685 6.81831 16.6339 7.16892C16.6899 7.42726 16.2325 7.77787 15.8497 8.29454Z" fill="#A0A3A7"/>
<path d="M7.42094 26C7.07556 25.6402 6.66484 25.2157 6.28213 24.8191C7.30892 22.5954 7.20624 21.2761 5.93675 20.1136C4.62992 18.9141 3.26708 18.8495 1.31617 19.9013C0.914784 19.477 0.513401 19.0433 0 18.4989C1.0268 17.5763 2.00692 16.5521 3.12706 15.7033C4.43389 14.6977 5.92742 14.836 7.01022 15.8786C8.04635 16.875 8.08369 18.3421 7.1129 19.7261C7.0569 19.8091 7.00088 19.9013 6.85154 20.1505C7.53296 20.741 8.25171 21.3499 9.00781 21.9957C12.7229 18.2867 16.4941 14.5131 20.34 10.6749C20.9093 11.21 21.3107 11.5883 21.7028 11.9574C16.9235 16.6536 12.2002 21.2945 7.42094 26Z" fill="#A0A3A7"/>
</svg>
