<svg width="27" height="28" viewBox="0 0 27 28" fill="none" xmlns="http://www.w3.org/2000/svg">
<path d="M3.84608 12.652C4.2745 12.4078 4.97024 12.4078 5.39869 12.652C5.82711 12.8974 5.82711 13.2932 5.39869 13.5374C4.97027 13.7828 4.27453 13.7828 3.84608 13.5374C3.41638 13.2932 3.41638 12.8974 3.84608 12.652Z" fill="#A0A3A7"/>
<path d="M14.2393 12.652C13.8109 12.4078 13.1152 12.4078 12.6867 12.652C12.2583 12.8974 12.2583 13.2932 12.6867 13.5374C13.1151 13.7828 13.8109 13.7828 14.2393 13.5374C14.669 13.2932 14.669 12.8974 14.2393 12.652Z" fill="#A0A3A7"/>
<path d="M16.3293 16.2259C16.3293 15.7376 15.9821 15.539 15.5536 15.7832C15.1239 16.0286 14.7767 16.623 14.7767 17.1113C14.7767 17.6009 15.1239 17.7982 15.5536 17.554C15.982 17.3099 16.3293 16.7155 16.3293 16.2259Z" fill="#A0A3A7"/>
<path d="M1.71742 16.248C1.71742 15.7597 2.06465 15.5611 2.4931 15.8053C2.9228 16.0495 3.27003 16.6451 3.27003 17.1334C3.27003 17.623 2.9228 17.8203 2.4931 17.5761C2.06468 17.332 1.71742 16.7376 1.71742 16.248Z" fill="#A0A3A7"/>
<path d="M6.13814 18.7685C6.13814 18.2789 6.48537 18.0804 6.91382 18.3258C7.34352 18.57 7.69075 19.1643 7.69075 19.6527C7.69075 20.1423 7.34352 20.3408 6.91382 20.0954C6.4854 19.8512 6.13814 19.2568 6.13814 18.7685Z" fill="#A0A3A7"/>
<path d="M6.91357 23.3646C6.48515 23.1205 6.13789 23.319 6.13789 23.8073C6.13789 24.2969 6.48512 24.8913 6.91357 25.1354C7.34326 25.3796 7.6905 25.1823 7.6905 24.6928C7.6905 24.2044 7.34326 23.6088 6.91357 23.3646Z" fill="#A0A3A7"/>
<path d="M2.49316 20.8454C2.06474 20.6013 1.71748 20.7986 1.71748 21.2881C1.71748 21.7765 2.06471 22.3721 2.49316 22.6162C2.92286 22.8604 3.27009 22.6619 3.27009 22.1735C3.27009 21.684 2.92286 21.0896 2.49316 20.8454Z" fill="#A0A3A7"/>
<path d="M2.49316 18.3259C2.06474 18.0805 1.71748 18.279 1.71748 18.7674C1.71748 19.2569 2.06471 19.8513 2.49316 20.0955C2.92286 20.3409 3.27009 20.1423 3.27009 19.6528C3.27009 19.1644 2.92286 18.5701 2.49316 18.3259Z" fill="#A0A3A7"/>
<path d="M6.13814 21.288C6.13814 20.7985 6.48537 20.6012 6.91382 20.8453C7.34352 21.0895 7.69075 21.6839 7.69075 22.1734C7.69075 22.6618 7.34352 22.8603 6.91382 22.6161C6.4854 22.372 6.13814 21.7763 6.13814 21.288Z" fill="#A0A3A7"/>
<path d="M11.9086 23.7851C11.9086 23.2968 11.5614 23.0983 11.1329 23.3424C10.7032 23.5878 10.356 24.1823 10.356 24.6706C10.356 25.1601 10.7032 25.3574 11.1329 25.1133C11.5613 24.8691 11.9086 24.2747 11.9086 23.7851Z" fill="#A0A3A7"/>
<path d="M16.3293 21.2659C16.3293 20.7764 15.9821 20.5791 15.5536 20.8232C15.1239 21.0674 14.7767 21.6618 14.7767 22.1514C14.7767 22.6397 15.1239 22.8382 15.5536 22.594C15.982 22.3499 16.3293 21.7542 16.3293 21.2659Z" fill="#A0A3A7"/>
<path d="M11.1332 18.3038C11.5616 18.0584 11.9088 18.2569 11.9088 18.7465C11.9088 19.2348 11.5616 19.8292 11.1332 20.0746C10.7035 20.3188 10.3562 20.1202 10.3562 19.6319C10.3562 19.1423 10.7035 18.548 11.1332 18.3038Z" fill="#A0A3A7"/>
<path d="M13.3427 19.5628C13.7711 19.3186 14.1197 19.5172 14.1197 20.0055C14.1197 20.495 13.7712 21.0894 13.3427 21.3336C12.9143 21.5778 12.5658 21.3804 12.5658 20.8909C12.5658 20.4025 12.9143 19.8082 13.3427 19.5628Z" fill="#A0A3A7"/>
<path d="M9.81893 12.652C9.39052 12.4078 8.69478 12.4078 8.26632 12.652C7.83663 12.8974 7.83663 13.2932 8.26632 13.5374C8.69474 13.7828 9.39048 13.7828 9.81893 13.5374C10.2486 13.2932 10.2486 12.8974 9.81893 12.652Z" fill="#A0A3A7"/>
<path fill-rule="evenodd" clip-rule="evenodd" d="M9.59286 6.32492C9.59286 5.17192 10.2161 4.10647 11.2279 3.53055L16.6626 0.432836C17.6731 -0.144279 18.9197 -0.144279 19.9303 0.432836L25.365 3.53055C26.3767 4.10643 27 5.17189 27 6.32492V12.5204C27 13.6733 26.3767 14.7388 25.365 15.3147L19.9303 18.4124C19.3507 18.7442 18.6924 18.8847 18.0467 18.8354V21.3597C18.0467 22.6249 17.3622 23.7952 16.2517 24.4278L10.817 27.5255C9.70785 28.1582 8.33888 28.1582 7.22962 27.5255L1.79493 24.4278C0.684485 23.7952 0 22.625 0 21.3597V15.1643C0 13.899 0.684485 12.7288 1.79493 12.0961L7.22962 8.99841C7.95532 8.58407 8.79096 8.44103 9.59286 8.56803V6.32492ZM23.7162 5.06831C24.1446 4.82291 24.1446 4.42708 23.7162 4.18289C23.2865 3.9375 22.592 3.9375 22.1623 4.18289C21.7339 4.42706 21.7339 4.8229 22.1623 5.06831C22.592 5.31248 23.2865 5.31248 23.7162 5.06831ZM21.5053 2.92259C21.935 3.16676 21.935 3.56382 21.5053 3.80801C21.0769 4.05218 20.3811 4.05218 19.9527 3.80801C19.523 3.56384 19.523 3.16678 19.9527 2.92259C20.3811 2.67843 21.0768 2.67843 21.5053 2.92259ZM19.2957 2.54771C19.7241 2.30354 19.7241 1.90771 19.2957 1.66229C18.866 1.41813 18.1715 1.41813 17.7418 1.66229C17.3134 1.90769 17.3134 2.30352 17.7418 2.54771C18.1715 2.79188 18.866 2.79188 19.2957 2.54771ZM14.874 4.18289C15.3037 4.42706 15.3037 4.8229 14.874 5.06831C14.4456 5.31248 13.7498 5.31248 13.3214 5.06831C12.8929 4.82291 12.8929 4.42708 13.3214 4.18289C13.7498 3.9375 14.4455 3.9375 14.874 4.18289ZM17.0848 6.32738C17.5133 6.08321 17.5133 5.68738 17.0848 5.44196C16.6564 5.1978 15.9607 5.1978 15.5322 5.44196C15.1025 5.68736 15.1025 6.0832 15.5322 6.32738C15.9607 6.57155 16.6564 6.57155 17.0848 6.32738ZM19.2957 6.70227C19.7241 6.94643 19.7241 7.3435 19.2957 7.58768C18.866 7.83185 18.1716 7.83185 17.7419 7.58768C17.3134 7.34351 17.3134 6.94645 17.7419 6.70227C18.1716 6.4581 18.866 6.4581 19.2957 6.70227ZM12.0086 9.12791C12.4371 9.37207 12.7843 9.17477 12.7843 8.68521C12.7843 8.19687 12.4371 7.60126 12.0086 7.3571C11.5789 7.11293 11.2317 7.31148 11.2317 7.7998C11.2317 8.28937 11.5789 8.88375 12.0086 9.12791ZM17.2061 11.2046C17.2061 11.6941 16.8576 11.8927 16.4291 11.6472C15.9994 11.4031 15.6522 10.8087 15.6522 10.3204C15.6522 9.83079 15.9994 9.63225 16.4291 9.87767C16.8576 10.1218 17.2061 10.7162 17.2061 11.2046ZM21.3854 15.359C21.3854 15.8486 21.0369 16.443 20.6084 16.6872C20.18 16.9313 19.8315 16.734 19.8315 16.2445C19.8315 15.7561 20.18 15.1617 20.6084 14.9163C21.0369 14.6722 21.3854 14.8707 21.3854 15.359ZM22.8181 12.9075C23.2478 12.6633 23.595 12.069 23.595 11.5794C23.595 11.0911 23.2478 10.8925 22.8181 11.1367C22.3897 11.3821 22.0424 11.9765 22.0424 12.4648C22.0424 12.9544 22.3896 13.1517 22.8181 12.9075ZM25.8059 7.79964C25.8059 8.28921 25.4574 8.88359 25.0289 9.12775C24.6005 9.37192 24.252 9.17461 24.252 8.68506C24.252 8.19671 24.6005 7.6011 25.0289 7.35694C25.4574 7.11278 25.8059 7.31132 25.8059 7.79964ZM10.4972 9.54455C9.58538 9.0254 8.46122 9.0254 7.54938 9.54455L2.11469 12.6423C1.20161 13.1627 0.639526 14.1233 0.639526 15.1641V21.3595C0.639526 22.4003 1.20161 23.3609 2.11469 23.8814L7.54938 26.9791C8.46122 27.4982 9.58538 27.4982 10.4972 26.9791L15.9319 23.8814C16.845 23.361 17.4071 22.4003 17.4071 21.3595V15.1641C17.4071 14.1233 16.845 13.1627 15.9319 12.6423L10.4972 9.54455Z" fill="#A0A3A7"/>
</svg>
