<svg width="21" height="21" viewBox="0 0 21 21" fill="none" xmlns="http://www.w3.org/2000/svg">
<path d="M7.51081 3.5788C8.84078 1.19294 9.50574 0 10.5 0C11.4942 0 12.1592 1.19293 13.4891 3.57879L13.8332 4.19605C14.2112 4.87403 14.4001 5.21304 14.6948 5.43671C14.9895 5.66038 15.3563 5.7434 16.0903 5.90946L16.7585 6.06064C19.3411 6.645 20.6325 6.93717 20.9397 7.92513C21.2469 8.91304 20.3666 9.94257 18.6059 12.0014L18.1504 12.5341C17.6501 13.1191 17.3998 13.4117 17.2873 13.7736C17.1748 14.1355 17.2126 14.5258 17.2882 15.3065L17.3571 16.0171C17.6233 18.7642 17.7564 20.1377 16.9521 20.7482C16.1477 21.3588 14.9386 20.8021 12.5205 19.6888L11.8949 19.4007C11.2078 19.0843 10.8642 18.9261 10.5 18.9261C10.1357 18.9261 9.79218 19.0843 9.10507 19.4007L8.47948 19.6888C6.06131 20.8021 4.85224 21.3588 4.0479 20.7482C3.24357 20.1377 3.37667 18.7642 3.64287 16.0171L3.71173 15.3065C3.78738 14.5258 3.8252 14.1355 3.71265 13.7736C3.60011 13.4117 3.34995 13.1191 2.84961 12.5341L2.3941 12.0014C0.633414 9.94257 -0.246937 8.91304 0.060293 7.92513C0.367523 6.93717 1.65885 6.645 4.24151 6.06064L4.90968 5.90946C5.64359 5.7434 6.01054 5.66038 6.30518 5.43671C6.59982 5.21304 6.7888 4.87404 7.16674 4.19605L7.51081 3.5788Z" fill="#A0A3A7"/>
</svg>
