<svg width="22" height="22" viewBox="0 0 22 22" fill="none" xmlns="http://www.w3.org/2000/svg">
<path d="M4.95 9.85075C7.68381 9.85075 9.9 7.64558 9.9 4.92537C9.9 2.20516 7.68381 0 4.95 0C2.21619 0 0 2.20516 0 4.92537C0 7.64558 2.21619 9.85075 4.95 9.85075Z" fill="#A0A3A7"/>
<path d="M7.92 12.0398H1.98C0.88 12.0398 0 12.9154 0 14.01V20.0299C0 21.1244 0.88 22 1.98 22H8.03C9.13 22 10.01 21.1244 10.01 20.0299V14.01C9.9 12.9154 9.02 12.0398 7.92 12.0398Z" fill="#A0A3A7"/>
<path d="M20.02 0H13.97C12.87 0 11.99 0.875622 11.99 1.97015V7.99005C11.99 9.08458 12.87 9.9602 13.97 9.9602H20.02C21.12 9.9602 22 9.08458 22 7.99005V1.97015C22 0.875622 21.12 0 20.02 0Z" fill="#A0A3A7"/>
<path d="M20.35 15.3234H18.7V13.6816C18.7 12.806 17.93 12.0398 17.05 12.0398C16.17 12.0398 15.4 12.806 15.4 13.6816V15.3234H13.75C12.87 15.3234 12.1 16.0896 12.1 16.9652C12.1 17.8408 12.87 18.607 13.75 18.607H15.4V20.2488C15.4 21.1244 16.17 21.8905 17.05 21.8905C17.93 21.8905 18.7 21.1244 18.7 20.2488V18.607H20.35C21.23 18.607 22 17.8408 22 16.9652C22 16.0896 21.23 15.3234 20.35 15.3234Z" fill="#A0A3A7"/>
</svg>
