<svg width="31" height="20" viewBox="0 0 31 20" fill="none" xmlns="http://www.w3.org/2000/svg">
<path fill-rule="evenodd" clip-rule="evenodd" d="M23.6226 10.8364C22.5138 10.0003 21.1329 8.96337 19.9359 8.24012C18.1149 7.14019 17.7681 7.41845 17.7644 7.41845C15.6376 9.31249 13.8788 10.314 12.7065 10.314C12.5015 10.3166 12.2976 10.2799 12.105 10.2051C11.655 10.0226 11.343 9.5855 11.2995 9.07885C11.1118 7.59562 12.5462 5.3208 14.8208 3.44917C14.4404 3.00552 13.8313 3.10659 12.6008 3.42948C11.5505 3.70512 10.3746 4.01358 9.22369 3.59355L5.03614 10.5226C5.09705 10.6027 5.16293 10.6762 5.23502 10.7445L5.27728 10.6959V10.6946C5.73098 10.1499 6.43325 9.9136 7.10198 10.0816C7.62154 10.2116 8.074 10.5476 8.36611 11.0201C9.06838 10.4951 9.96832 10.3625 10.7812 10.6618C11.4201 10.923 11.8676 11.5373 11.9434 12.2566C12.6481 12.1332 13.3654 12.3852 13.8613 12.9286C14.2889 13.4563 14.3982 14.2123 14.1844 15.0904C15.0135 15.3897 15.5132 15.8675 15.6735 16.5185C15.896 17.4216 15.1788 18.5937 14.8793 19.0295C16.0104 19.8367 16.9153 20.1491 17.5119 19.9339L17.5106 19.9325C17.901 19.754 18.1943 19.401 18.3111 18.9691L16.2155 17.3966H16.2167C16.1123 17.3231 16.0415 17.2076 16.0191 17.0777C15.9967 16.9464 16.0253 16.8125 16.0974 16.7049C16.1695 16.596 16.2813 16.5238 16.4044 16.5041C16.5287 16.4831 16.6555 16.5159 16.7562 16.596L19.093 18.3509C19.6809 18.6226 20.147 18.6725 20.4802 18.4979L20.4789 18.4966C20.8468 18.2459 21.1029 17.8482 21.1899 17.3953L17.4335 14.8069C17.2185 14.6586 17.1576 14.3541 17.298 14.127C17.4385 13.8987 17.7269 13.8343 17.9431 13.9827L21.9032 16.7115C22.296 16.8388 22.7223 16.7876 23.079 16.5711C23.3289 16.3295 23.478 15.9949 23.4967 15.6378L18.5162 12.0807C18.4117 12.0085 18.3397 11.8957 18.3148 11.767C18.2912 11.6371 18.316 11.5032 18.3856 11.3942C18.4553 11.2853 18.5634 11.2105 18.6864 11.1868C18.8083 11.1619 18.935 11.1908 19.037 11.2669L24.1731 14.9316C24.807 15.1271 25.4931 14.9867 26.0114 14.5548C26.2675 14.2031 26.3781 13.7581 26.3185 13.3197C26.229 12.8734 25.8722 12.439 25.2582 12.0281C24.8617 11.7669 24.2874 11.3364 23.6237 10.8363L23.6226 10.8364ZM17.164 6.66774C14.5798 8.97133 13.0038 9.51868 12.4393 9.28897C12.3063 9.23516 12.2193 9.09996 12.2206 8.95033C12.1124 8.0919 13.1192 5.98784 15.696 3.98092C17.8326 2.68147 18.3708 2.95973 19.1166 3.34564V3.34696C19.6437 3.65148 20.2266 3.8313 20.8257 3.87199C21.144 3.89168 21.4634 3.8838 21.7804 3.84705L26.1381 11.0597C26.0698 11.1555 25.9803 11.233 25.8771 11.2842C25.8361 11.2553 25.7951 11.2264 25.7528 11.1976C25.3774 10.9508 24.8144 10.5281 24.1618 10.0372C20.7399 7.46063 18.2353 5.71501 17.1613 6.67031L17.164 6.66774ZM22.1744 2.66977C22.0613 2.48076 22.1135 2.23006 22.2913 2.1106L24.9637 0.309734H24.9649C25.0507 0.251978 25.1551 0.232291 25.2545 0.254607C25.354 0.278233 25.4397 0.34255 25.4956 0.433117L30.9398 9.44519C30.9945 9.53575 31.0131 9.64601 30.9907 9.75102C30.9696 9.85602 30.9087 9.94659 30.8229 10.0043L28.1505 11.8052C27.9716 11.9247 27.7341 11.8695 27.6198 11.6818L22.1744 2.66977ZM14.7724 16.7655C14.8407 17.0438 14.6232 17.7499 14.0838 18.5112C13.5766 19.2266 13.0471 19.6204 12.806 19.6282C12.1447 19.6505 11.7619 19.3998 11.5618 18.8026L13.763 15.9792C14.3497 16.1656 14.6878 16.4269 14.7724 16.7655ZM11.5455 17.2774L10.7898 18.2448C10.1534 18.3826 9.66612 18.3458 9.37773 18.1345C9.16394 17.9586 9.02472 17.7 8.98867 17.4165L11.7754 13.2687C12.418 13.1571 12.9041 13.2582 13.1539 13.568C13.4161 13.8935 13.4261 14.4763 13.1837 15.1759C12.4938 16.0592 11.9482 16.7602 11.5455 17.2774ZM8.25146 16.8127C7.8425 16.8456 7.4373 16.7143 7.11538 16.4465C6.8643 16.1565 6.72882 15.7758 6.73379 15.3833C8.00039 13.7846 8.4665 12.6466 8.63308 12.0625V12.0638C9.10045 11.5546 9.799 11.3669 10.4391 11.5782C10.8456 11.758 11.0905 12.2004 11.0407 12.6624L8.25146 16.8127ZM6.01159 14.7638C5.63373 14.8832 5.22853 14.8412 4.87924 14.6496C4.6555 14.4304 4.52995 14.1206 4.53494 13.7977C4.47279 13.039 5.02965 12.4129 5.62132 11.7501C5.73816 11.6188 5.85873 11.4836 5.97185 11.3484H5.97309C6.2018 11.0702 6.55728 10.9507 6.89537 11.04C7.2832 11.1397 7.59516 11.4416 7.72569 11.8406C7.56535 12.3631 7.13899 13.3462 6.01287 14.7637L6.01159 14.7638ZM3.38022 11.4351C3.26462 11.6241 3.02844 11.6792 2.84945 11.5585L0.178301 9.75893C0.091292 9.70117 0.031629 9.60929 0.00925616 9.50429C-0.0131173 9.39928 0.00552745 9.28902 0.0602195 9.19845L5.50435 0.186388H5.50559C5.56029 0.0971339 5.64729 0.0328158 5.74673 0.0105006C5.77408 0.00393782 5.80266 0 5.83126 0C5.90335 0 5.9742 0.0223141 6.0351 0.0630038L8.7075 1.86387C8.88524 1.98463 8.93745 2.23403 8.82558 2.42304L3.38022 11.4351Z" fill="#A0A3A7"/>
</svg>
