<svg width="22" height="22" viewBox="0 0 22 22" fill="none" xmlns="http://www.w3.org/2000/svg">
<path d="M5.603 11.7604C5.96262 11.9779 6.31073 12.2136 6.64594 12.4667C6.90219 12.6531 7.17419 12.8511 7.4793 13.0564C8.25115 13.5757 8.98851 14.144 9.68677 14.7576C9.97865 13.8788 10.3296 13.0206 10.7373 12.1886C10.8985 11.8589 11.0348 11.5522 11.163 11.263C11.3356 10.8734 11.499 10.5052 11.6923 10.1507L11.6988 10.1544C10.2721 9.23432 8.90485 8.22608 7.60525 7.13566C7.10794 8.46863 6.16057 10.6962 5.603 11.7604Z" fill="#A0A3A7"/>
<path d="M17.2578 17.2375L12.9437 1.22603C12.8264 0.802549 12.5458 0.442103 12.1628 0.222842C11.7798 0.00358153 11.3253 -0.0568212 10.8979 0.0547305L1.23555 2.62934C0.80816 2.74397 0.444011 3.02246 0.223048 3.40367C0.00208416 3.78488 -0.0576333 4.23765 0.0570062 4.66257L4.37111 20.674C4.46813 21.0254 4.67827 21.3355 4.9694 21.557C5.26053 21.7785 5.61663 21.8992 5.98328 21.9006C6.12965 21.9013 6.27547 21.8827 6.41692 21.8453L16.0793 19.2707C16.5067 19.1561 16.8708 18.8776 17.0918 18.4964C17.3127 18.1152 17.3725 17.6624 17.2578 17.2375ZM12.6713 10.6793C12.4991 10.9943 12.3433 11.3423 12.1821 11.7069C12.0487 12.0108 11.9042 12.3313 11.7374 12.6738C11.3502 13.4632 11.0158 14.2771 10.7366 15.1103C10.6776 15.2833 10.5768 15.4392 10.443 15.5644C10.3092 15.6897 10.1466 15.7804 9.96936 15.8286C9.8765 15.8505 9.7814 15.8616 9.68597 15.8617C9.41546 15.8626 9.15414 15.7642 8.95209 15.5855C8.28818 15.0046 7.58817 14.4657 6.85619 13.9722C6.53926 13.7568 6.25573 13.5523 5.98889 13.3589C5.63871 13.1048 5.33848 12.8838 5.02711 12.6959C4.78649 12.5515 4.61011 12.3217 4.53372 12.0529C4.45733 11.7841 4.48664 11.4965 4.61572 11.2484C5.13827 10.2483 6.07778 8.04939 6.56708 6.7455C6.62993 6.5794 6.73219 6.43083 6.86517 6.3124C6.99816 6.19398 7.15794 6.10921 7.33094 6.06528C7.50395 6.02136 7.68506 6.01958 7.85891 6.06009C8.03275 6.10061 8.19419 6.18223 8.3295 6.29801C9.58378 7.3482 10.902 8.32059 12.2766 9.20964C12.5201 9.35702 12.697 9.59204 12.7705 9.86579C12.8441 10.1395 12.8085 10.4309 12.6713 10.6793Z" fill="#A0A3A7"/>
<path d="M20.3322 1.55753H14.1834L18.3364 16.9557C18.5251 17.6634 18.4239 18.4165 18.055 19.0502C17.6862 19.684 17.0797 20.1466 16.3684 20.337L10.1252 22H20.3322C20.7741 21.9987 21.1976 21.8237 21.5101 21.5131C21.8226 21.2025 21.9987 20.7817 22 20.3425V3.21503C21.9987 2.77583 21.8226 2.35499 21.5101 2.04443C21.1976 1.73387 20.7741 1.55882 20.3322 1.55753Z" fill="#A0A3A7"/>
</svg>
