<svg width="23" height="22" viewBox="0 0 23 22" fill="none" xmlns="http://www.w3.org/2000/svg">
<path d="M3.29092 14.6204C3.68324 11.028 6.76466 8.51272 7.56031 5.1961C3.97933 6.42233 1.16797 9.4566 0.34992 13.3024C0.886907 15.8411 2.3073 18.0571 4.26888 19.6117C2.957 17.304 3.27981 14.7487 3.29092 14.6204Z" fill="#A0A3A7"/>
<path d="M8.66796 5.10986C8.05725 8.67166 4.81738 11.152 4.36081 14.754C4.35524 14.7971 3.94206 18.1112 6.10254 20.2573C7.20714 21.3889 8.94471 21.9694 10.5753 22V4.61978C9.93535 4.64622 9.30655 4.73252 8.69862 4.8731C8.69305 4.95939 8.67775 5.04012 8.66662 5.10971L8.66796 5.10986Z" fill="#A0A3A7"/>
<path d="M15.742 9.81577C14.7904 8.29029 13.7999 6.70492 13.5592 4.88288C12.9416 4.73813 12.3017 4.64626 11.6506 4.61982V22C13.2894 21.9582 15.0367 21.4279 16.1564 20.2629C18.2265 18.2141 17.9468 15.0992 17.9093 14.7496C17.6839 12.9318 16.6948 11.3507 15.7433 9.81673L15.742 9.81577Z" fill="#A0A3A7"/>
<path d="M14.7056 5.21141C15.5097 8.53241 18.5815 11.0226 18.975 14.6247C19.0349 15.1577 19.206 17.4543 18.0291 19.5575C19.9586 18.0028 21.347 15.808 21.8786 13.3009C21.0661 9.47049 18.2713 6.4432 14.7056 5.21141Z" fill="#A0A3A7"/>
<path d="M14.6515 3.64681C14.6251 3.786 14.6084 3.92658 14.6028 4.05045C17.9152 5.05121 20.6725 7.44521 22.1138 10.6074C21.9747 6.53471 19.6138 3.02318 16.2054 1.23731C15.7435 1.59223 14.8824 2.41085 14.6515 3.64681Z" fill="#A0A3A7"/>
<path d="M15.1297 0.74745C14.0432 0.317373 12.8718 0.0529134 11.6518 0V3.53953C12.2973 3.57154 12.9261 3.64671 13.5438 3.78172C13.5549 3.67455 13.5702 3.5618 13.5925 3.44767C13.829 2.19499 14.5384 1.29583 15.1297 0.74745Z" fill="#A0A3A7"/>
<path d="M8.66787 3.44799C8.68874 3.56073 8.70543 3.66791 8.71656 3.77648C9.32449 3.64703 9.94218 3.5663 10.5766 3.53986V0.00032622C9.36627 0.0546079 8.20604 0.312105 7.12509 0.736624C7.71635 1.29059 8.43695 2.18833 8.66787 3.44799Z" fill="#A0A3A7"/>
<path d="M7.66214 4.03948C7.64266 2.79654 6.5492 1.56057 6.0442 1.22652C2.62469 3.00673 0.254088 6.53105 0.11377 10.6077C1.56059 7.43424 4.33473 5.03468 7.66214 4.03948Z" fill="#A0A3A7"/>
</svg>
