<svg width="24" height="22" viewBox="0 0 24 22" fill="none" xmlns="http://www.w3.org/2000/svg">
<path d="M21.7101 13.5582L21.9418 11.4747C22.0653 10.3631 22.1469 9.62903 22.0829 9.16654L22.1053 9.16667C23.1517 9.16667 24 8.34586 24 7.33333C24 6.32081 23.1517 5.5 22.1053 5.5C21.0589 5.5 20.2105 6.32081 20.2105 7.33333C20.2105 7.79125 20.3841 8.20996 20.6709 8.53127C20.259 8.77727 19.7207 9.29622 18.9101 10.0773C18.2857 10.6792 17.9735 10.9801 17.6252 11.0268C17.4322 11.0526 17.2357 11.026 17.0574 10.9501C16.7358 10.813 16.5213 10.4411 16.0925 9.69711L13.8322 5.77549C13.5676 5.31651 13.3461 4.93236 13.1466 4.62324C13.9655 4.21895 14.5263 3.39506 14.5263 2.44444C14.5263 1.09441 13.3953 0 12 0C10.6047 0 9.47368 1.09441 9.47368 2.44444C9.47368 3.39506 10.0345 4.21895 10.8534 4.62324C10.6539 4.93239 10.4324 5.31647 10.1678 5.77549L7.90744 9.69711C7.4786 10.4411 7.26418 10.813 6.94258 10.9501C6.76439 11.026 6.56775 11.0526 6.37478 11.0268C6.02649 10.9801 5.71429 10.6792 5.08989 10.0773C4.27941 9.29622 3.74092 8.77727 3.32909 8.53126C3.61597 8.20996 3.78947 7.79125 3.78947 7.33333C3.78947 6.32081 2.94117 5.5 1.89474 5.5C0.848299 5.5 0 6.32081 0 7.33333C0 8.34586 0.848299 9.16667 1.89474 9.16667L1.91711 9.16654C1.85308 9.62903 1.93468 10.3631 2.05825 11.4747L2.28985 13.5582C2.41842 14.7147 2.52532 15.8151 2.65626 16.8056H21.3437C21.4747 15.8151 21.5816 14.7147 21.7101 13.5582Z" fill="#A0A3A7"/>
<path d="M10.6258 22H13.3742C16.9565 22 18.7475 22 19.9426 20.965C20.4643 20.5132 20.7945 19.6988 21.0328 18.6389H2.96711C3.20545 19.6988 3.53574 20.5132 4.05736 20.965C5.25243 22 7.04353 22 10.6258 22Z" fill="#A0A3A7"/>
</svg>
