<svg width="40" height="52" viewBox="0 0 40 52" fill="none" xmlns="http://www.w3.org/2000/svg">
<g id="Icon" clip-path="url(#clip0_146_749)">
<path id="Vector" d="M0.694096 43.1125C1.48627 36.4662 2.04971 32.3846 2.36559 30.9809C3.15778 27.4638 6.21856 23.0052 8.66243 19.868L10.0398 18.1385C10.343 17.7576 10.4872 17.2717 10.4415 16.7847C10.3958 16.2977 10.1639 15.848 9.79525 15.5317C9.65464 15.4114 9.53481 15.3071 9.45263 15.2309C8.27822 14.1782 7.06322 12.8838 6.63643 11.7348C5.88683 9.71456 4.14502 3.352 4.07076 3.0823C4.02416 2.91057 4.03123 2.72845 4.09098 2.56095C4.15073 2.39346 4.26024 2.2488 4.40446 2.14686C4.55196 2.04506 4.72705 1.99215 4.90552 1.99547C6.42156 1.99547 7.24047 2.55292 7.89996 2.99808C8.49409 3.39912 8.95751 3.71294 9.97249 3.71294C10.7805 3.71294 11.1875 3.21163 11.8381 2.34037C12.5164 1.42198 13.363 0.281006 15.0573 0.281006C16.7516 0.281006 17.5982 1.42198 18.2775 2.34037C18.9271 3.21665 19.3341 3.71294 20.1421 3.71294C20.9501 3.71294 21.3561 3.21163 22.0067 2.34037C22.685 1.42198 23.5316 0.281006 25.2259 0.281006C26.9202 0.281006 27.7649 1.42097 28.4451 2.33936C29.0937 3.21564 29.5007 3.71194 30.3087 3.71194C31.3237 3.71194 31.7941 3.39611 32.3813 2.99708C33.0427 2.55091 33.8666 1.99447 35.3935 1.99447C35.5241 1.99448 35.6529 2.02503 35.7699 2.08374C35.8869 2.14245 35.9889 2.22773 36.068 2.33293C36.147 2.43813 36.2011 2.56041 36.2258 2.69022C36.2505 2.82003 36.2453 2.95387 36.2105 3.08129C36.1362 3.351 34.3944 9.71356 33.6448 11.7338C33.1774 12.9911 31.7634 14.4208 30.5008 15.5187C30.1224 15.8344 29.883 16.2892 29.8353 16.7833C29.7876 17.2775 29.9354 17.7706 30.2464 18.1545L31.1277 19.2414C33.6339 22.3885 37.069 27.2201 37.9147 30.9719C38.2305 32.3755 38.793 36.4612 39.5852 43.1035C39.7148 44.1879 39.6156 45.2878 39.2942 46.3306C38.9729 47.3733 38.4366 48.3351 37.7209 49.1525C37.0052 49.9698 36.1263 50.6241 35.1424 51.072C34.1584 51.5199 33.0918 51.7514 32.0129 51.751H8.26733C7.18841 51.7515 6.12166 51.5202 5.13758 51.0723C4.1535 50.6244 3.27451 49.9702 2.55868 49.1528C1.84286 48.3355 1.30652 47.3736 0.985096 46.3308C0.66367 45.288 0.564484 44.188 0.694096 43.1035V43.1125ZM20.1401 46.6116C22.3189 46.6116 24.4488 45.9574 26.2604 44.7318C28.072 43.5062 29.484 41.7642 30.3178 39.726C31.1516 37.6879 31.3698 35.4452 30.9447 33.2815C30.5196 31.1178 29.4704 29.1304 27.9298 27.5705C26.3891 26.0106 24.4262 24.9482 22.2893 24.5179C20.1524 24.0875 17.9373 24.3084 15.9244 25.1526C13.9114 25.9968 12.1909 27.4264 10.9805 29.2607C9.76997 31.095 9.12388 33.2515 9.12388 35.4576C9.12728 38.4147 10.289 41.2498 12.3542 43.3408C14.4194 45.4319 17.2195 46.6082 20.1401 46.6116Z" fill="#D8BC6B"/>
<path id="Vector_2" d="M19.7886 28.0032L17.7388 32.2142C17.7102 32.2718 17.6682 32.3216 17.6165 32.3593C17.5648 32.397 17.5048 32.4215 17.4418 32.4307L12.858 33.1055C12.7867 33.1176 12.72 33.1493 12.6651 33.197C12.6103 33.2448 12.5694 33.3069 12.547 33.3766C12.5245 33.4462 12.5214 33.5207 12.5378 33.5921C12.5542 33.6634 12.5896 33.7288 12.6402 33.7812L15.9574 37.0558C16.0031 37.1005 16.0373 37.1558 16.057 37.217C16.0766 37.2782 16.0812 37.3433 16.0703 37.4067L15.287 42.0297C15.2764 42.1022 15.2855 42.1764 15.3136 42.244C15.3416 42.3116 15.3874 42.3702 15.446 42.4133C15.5046 42.4564 15.5738 42.4824 15.646 42.4885C15.7181 42.4946 15.7906 42.4805 15.8554 42.4478L19.956 40.2651C20.0121 40.235 20.0746 40.2193 20.1382 40.2193C20.2017 40.2193 20.2642 40.235 20.3204 40.2651L24.4209 42.4478C24.4857 42.4805 24.5582 42.4946 24.6304 42.4885C24.7025 42.4824 24.7717 42.4564 24.8303 42.4133C24.8889 42.3702 24.9347 42.3116 24.9627 42.244C24.9908 42.1764 24.9999 42.1022 24.9893 42.0297L24.206 37.4067C24.1951 37.3433 24.1997 37.2782 24.2194 37.217C24.239 37.1558 24.2732 37.1005 24.3189 37.0558L27.6361 33.7812C27.6867 33.7289 27.7221 33.6636 27.7386 33.5923C27.7551 33.521 27.752 33.4465 27.7296 33.3769C27.7073 33.3073 27.6666 33.2452 27.6119 33.1974C27.5572 33.1495 27.4906 33.1177 27.4193 33.1055L22.8345 32.4307C22.7715 32.4215 22.7115 32.397 22.6598 32.3593C22.6081 32.3216 22.5661 32.2718 22.5375 32.2142L20.4877 28.0032C20.4539 27.939 20.4036 27.8854 20.342 27.848C20.2804 27.8105 20.21 27.7908 20.1382 27.7908C20.0663 27.7908 19.9959 27.8105 19.9343 27.848C19.8727 27.8854 19.8224 27.939 19.7886 28.0032Z" fill="#D8BC6B"/>
</g>
<defs>
<clipPath id="clip0_146_749">
<rect width="39" height="51.48" fill="white" transform="matrix(-1 0 0 1 39.6396 0.280029)"/>
</clipPath>
</defs>
</svg>
