<svg width="54" height="52" viewBox="0 0 54 52" fill="none" xmlns="http://www.w3.org/2000/svg">
<g id="Icon" clip-path="url(#clip0_146_767)">
<path id="Vector" d="M53.4455 22.7205L45.3427 11.6765L45.0176 11.8345C43.6194 12.5075 42.5359 13.6877 41.9913 15.1309L40.5788 18.8524C40.5433 18.9467 40.4795 19.028 40.3961 19.0854C40.3127 19.1428 40.2136 19.1735 40.1121 19.1735C40.0106 19.1735 39.9115 19.1428 39.8281 19.0854C39.7447 19.028 39.681 18.9467 39.6455 18.8524L38.2351 15.1309C37.6893 13.6917 36.6066 12.5153 35.2108 11.8449L32.7182 10.6411C32.6183 10.5913 32.5371 10.5112 32.4864 10.4124C32.4472 10.3309 32.4313 10.2403 32.4403 10.1505H11.197C10.844 10.1504 10.496 10.2331 10.1814 10.3919C9.86682 10.5507 9.59464 10.7811 9.38709 11.0642L0.835461 22.7205C0.682672 22.928 0.607395 23.1816 0.622508 23.438C0.637621 23.6944 0.742189 23.9376 0.918308 24.126L26.3205 51.4035C26.4252 51.5156 26.5522 51.6051 26.6935 51.6664C26.8348 51.7276 26.9874 51.7592 27.1416 51.7592C27.2957 51.7592 27.4483 51.7276 27.5896 51.6664C27.7309 51.6051 27.8579 51.5156 27.9626 51.4035L53.3648 24.1239C53.5404 23.9357 53.6446 23.6928 53.6595 23.4368C53.6744 23.1808 53.5991 22.9276 53.4466 22.7205H53.4455Z" fill="#D8BC6B"/>
<path id="Vector_2" d="M44.0992 10.3916C44.4138 10.5508 44.6861 10.7812 44.894 11.0642L45.3428 11.6765L47.5114 10.6286C47.5955 10.5884 47.6663 10.5256 47.716 10.4472C47.7656 10.3689 47.7919 10.2783 47.7919 10.1858C47.7919 10.0933 47.7656 10.0027 47.716 9.92436C47.6663 9.84602 47.5955 9.78315 47.5114 9.74296L45.0178 8.54229C43.6195 7.86879 42.5368 6.68711 41.9945 5.2428L40.581 1.52957C40.5382 1.44312 40.4719 1.3703 40.3895 1.31936C40.3071 1.26843 40.212 1.24142 40.1149 1.24142C40.0177 1.24142 39.9226 1.26843 39.8402 1.31936C39.7578 1.3703 39.6915 1.44312 39.6488 1.52957L38.2352 5.25111C37.6925 6.69472 36.6093 7.87538 35.2109 8.54749L32.7183 9.75127C32.6413 9.78857 32.5753 9.84488 32.5267 9.9148C32.478 9.98471 32.4483 10.0659 32.4404 10.1505H43.0862C43.4382 10.151 43.7852 10.2336 44.0992 10.3916Z" fill="#D8BC6B"/>
<path id="Vector_3" d="M53.5004 3.92882L52.5797 4.37374C52.0861 4.61073 51.7035 5.02688 51.5111 5.53595L50.9868 6.91126C50.9724 6.94825 50.9503 6.98182 50.9219 7.00976C50.8936 7.03771 50.8596 7.0594 50.8222 7.07342C50.7876 7.08645 50.7508 7.09258 50.7138 7.09147C50.6769 7.09037 50.6405 7.08204 50.6068 7.06698C50.5731 7.05192 50.5427 7.03041 50.5174 7.00368C50.4921 6.97696 50.4724 6.94555 50.4593 6.91126L49.935 5.53595C49.7425 5.02658 49.3595 4.61034 48.8654 4.37374L47.9447 3.92882C47.8974 3.90562 47.8576 3.86977 47.8297 3.82531C47.8019 3.78086 47.7871 3.72958 47.7871 3.67725C47.7871 3.62493 47.8019 3.57365 47.8297 3.52919C47.8576 3.48474 47.8974 3.44889 47.9447 3.42568L48.8654 2.98076C49.3595 2.74374 49.7426 2.32716 49.935 1.81752L50.4593 0.443251C50.4874 0.385119 50.5343 0.337934 50.5925 0.30915C50.6628 0.27536 50.7437 0.270496 50.8175 0.29562C50.8914 0.320744 50.9522 0.373815 50.9868 0.443251L51.5111 1.81752C51.7044 2.3253 52.0869 2.74019 52.5797 2.9766L53.5004 3.42153C53.5569 3.44889 53.6029 3.49378 53.6314 3.54939C53.6484 3.58276 53.6584 3.61915 53.661 3.65641C53.6635 3.69368 53.6586 3.73108 53.6464 3.76642C53.6342 3.80175 53.615 3.83432 53.5899 3.86221C53.5648 3.8901 53.5344 3.91274 53.5004 3.92882Z" fill="#D8BC6B"/>
</g>
<defs>
<clipPath id="clip0_146_767">
<rect width="53.04" height="51.48" fill="white" transform="translate(0.619629 0.280029)"/>
</clipPath>
</defs>
</svg>
