<svg width="103" height="103" viewBox="0 0 103 103" fill="none" xmlns="http://www.w3.org/2000/svg">
<g id="Diamond">
<path id="Vector" d="M81.9868 63.7959L102.399 72.2511V29.9283L81.9868 38.3835V63.7959Z" fill="#4C87BA"/>
<path id="Vector_2" d="M64.0155 20.4124L72.4707 -0.000244141H30.1479L38.6031 20.4124H64.0155Z" fill="#78A5CF"/>
<path id="Vector_3" d="M64.0161 81.7671L72.4713 102.18L102.4 72.2511L81.9873 63.7959L64.0161 81.7671Z" fill="#78A5CF"/>
<path id="Vector_4" d="M81.9873 38.3836L102.4 29.9284L72.4713 -0.000244141L64.0161 20.4124L81.9873 38.3836Z" fill="#A6DAF4"/>
<path id="Vector_5" d="M20.6323 63.796L0.219727 72.2512L30.1483 102.18L38.6035 81.7672L20.6323 63.796Z" fill="#A6DAF4"/>
<path id="Vector_6" d="M64.0155 81.7671H38.6031L30.1479 102.18H72.4707L64.0155 81.7671Z" fill="#9BC4E2"/>
<path id="Vector_7" d="M38.6035 20.4124L30.1483 -0.000244141L0.219727 29.9284L20.6323 38.3836L38.6035 20.4124Z" fill="#4C87BA"/>
<path id="Vector_8" d="M20.6323 38.3837L0.219727 29.9285V72.2513L20.6323 63.7961V38.3837Z" fill="#78A5CF"/>
<path id="Vector_9" d="M81.9866 38.3834L64.0154 20.4122H38.603L20.6318 38.3834V63.7958L38.603 81.767H64.0154L81.9866 63.7958V38.3834Z" fill="#BAE5F4"/>
</g>
</svg>
