<svg width="97" height="105" viewBox="0 0 97 105" fill="none" xmlns="http://www.w3.org/2000/svg">
<g id="Emerald" clip-path="url(#clip0_146_590)">
<path id="Vector" d="M38.7785 58.1818L34.6445 93.4222L47.9747 104.545L44.4023 65.4592L38.7785 58.1818Z" fill="#CCD1B2"/>
<path id="Vector_2" d="M22.6562 83.4146L34.6448 93.422L38.7788 58.1816L22.6562 83.4146Z" fill="#91C08C"/>
<path id="Vector_3" d="M44.4028 65.4591L47.9752 104.545L51.9766 65.4591H44.4028Z" fill="#91C08C"/>
<path id="Vector_4" d="M38.1474 26.5448L0.34082 14.3066L31.7592 33.713L38.1474 26.5448Z" fill="#CCD1B2"/>
<path id="Vector_5" d="M51.976 65.4589L47.9746 104.545L61.7494 93.1879L57.6622 58.1815L51.976 65.4589Z" fill="#51A559"/>
<path id="Vector_6" d="M31.7592 33.713L0.34082 14.3066L8.99102 54.1412L34.7388 47.4332L31.7592 33.713Z" fill="#91C08C"/>
<path id="Vector_7" d="M34.7385 47.4333L8.99072 54.1413L22.6563 83.4148L38.7789 58.1817L34.7385 47.4333Z" fill="#51A559"/>
<path id="Vector_8" d="M70.5014 2.56777L47.9751 0.219971L25.7061 2.56777L48.1623 23.0194L70.5014 2.56777Z" fill="#416C4C"/>
<path id="Vector_9" d="M58.2714 26.545L96.195 14.3067L70.5018 2.56775L48.1626 23.0194L58.2714 26.545Z" fill="#324746"/>
<path id="Vector_10" d="M38.1474 26.545L48.1626 23.0194L25.7064 2.56775L0.34082 14.3067L38.1474 26.545Z" fill="#448B51"/>
<path id="Vector_11" d="M61.7498 93.188L73.6058 83.4146L57.6626 58.1816L61.7498 93.188Z" fill="#448B51"/>
<path id="Vector_12" d="M64.7684 33.713L96.1946 14.3066L58.271 26.5448L64.7684 33.713Z" fill="#448B51"/>
<path id="Vector_13" d="M57.6626 58.1816L73.6058 83.4146L87.4274 54.1412L61.7498 47.4332L57.6626 58.1816Z" fill="#416C4C"/>
<path id="Vector_14" d="M61.75 47.4332L87.4276 54.1412L96.1948 14.3066L64.7686 33.713L61.75 47.4332Z" fill="#324746"/>
<path id="Vector_15" d="M34.7379 47.4333L38.7783 58.1817L44.4021 65.4591H51.9759L57.6621 58.1817L61.7493 47.4333L64.7679 33.7131L58.2705 26.5449L48.1617 23.0193L38.1465 26.5449L31.7583 33.7131L34.7379 47.4333Z" fill="#B2C4A3"/>
</g>
<defs>
<clipPath id="clip0_146_590">
<rect width="95.8542" height="104.333" fill="white" transform="translate(0.340332 0.219849)"/>
</clipPath>
</defs>
</svg>
