<svg width="54" height="53" viewBox="0 0 54 53" fill="none" xmlns="http://www.w3.org/2000/svg">
<g id="Layer_1" clip-path="url(#clip0_146_759)">
<path id="Vector" d="M12.422 30.5667H4.32803C2.40156 30.5667 0.839844 32.1326 0.839844 34.0641V49.0426C0.839844 50.9742 2.40156 52.5401 4.32803 52.5401H12.422C14.3485 52.5401 15.9102 50.9742 15.9102 49.0426V34.0641C15.9102 32.1326 14.3485 30.5667 12.422 30.5667Z" fill="#D8BC6B"/>
<path id="Vector_2" d="M31.4069 15.4233H23.3129C21.3864 15.4233 19.8247 16.9892 19.8247 18.9208V49.0426C19.8247 50.9742 21.3864 52.54 23.3129 52.54H31.4069C33.3334 52.54 34.8951 50.9742 34.8951 49.0426V18.9208C34.8951 16.9892 33.3334 15.4233 31.4069 15.4233Z" fill="#D8BC6B"/>
<path id="Vector_3" d="M50.3918 0.280029H42.2978C40.3713 0.280029 38.8096 1.84587 38.8096 3.77744V49.0426C38.8096 50.9742 40.3713 52.54 42.2978 52.54H50.3918C52.3182 52.54 53.8799 50.9742 53.8799 49.0426V3.77744C53.8799 1.84587 52.3182 0.280029 50.3918 0.280029Z" fill="#D8BC6B"/>
</g>
<defs>
<clipPath id="clip0_146_759">
<rect width="53.04" height="52.26" fill="white" transform="translate(0.839844 0.280029)"/>
</clipPath>
</defs>
</svg>
