<svg width="60" height="60" viewBox="0 0 60 60" fill="none" xmlns="http://www.w3.org/2000/svg">
<g id="Layer_1" clip-path="url(#clip0_146_740)">
<path id="Vector" d="M48.9834 22.8103C48.9827 22.744 49.001 22.679 49.0361 22.6228C49.0712 22.5666 49.1216 22.5216 49.1814 22.4931L50.9343 21.6409C51.9171 21.1637 52.678 20.326 53.0589 19.3021L54.0523 16.6681C54.0828 16.6072 54.1297 16.5559 54.1877 16.5201C54.2456 16.4843 54.3124 16.4653 54.3806 16.4653C54.4487 16.4653 54.5155 16.4843 54.5735 16.5201C54.6315 16.5559 54.6783 16.6072 54.7088 16.6681L55.7022 19.3068C56.0837 20.3308 56.8456 21.1681 57.8291 21.6444L59.582 22.4977C59.6649 22.5377 59.7285 22.6089 59.7588 22.6957C59.7892 22.7826 59.784 22.8779 59.7441 22.9608C59.7093 23.0314 59.6524 23.0887 59.582 23.1241L57.8291 23.9774C56.8472 24.4523 56.0856 25.2868 55.7022 26.3081L54.71 28.9467C54.6861 29.0146 54.6418 29.0733 54.5831 29.1149C54.5244 29.1565 54.4542 29.1788 54.3823 29.1788C54.3104 29.1788 54.2403 29.1565 54.1816 29.1149C54.1229 29.0733 54.0785 29.0146 54.0546 28.9467L53.0613 26.3081C52.6787 25.2844 51.9172 24.447 50.9343 23.9693L49.1814 23.1148C49.1235 23.0873 49.0744 23.0442 49.0394 22.9905C49.0045 22.9367 48.9851 22.8744 48.9834 22.8103Z" fill="#D8BC6B"/>
<path id="Vector_2" d="M44.879 18.1038C44.8987 18.064 44.9314 18.0321 44.9717 18.0135L45.6177 17.6974C45.9652 17.5289 46.2346 17.2334 46.3703 16.8719L46.7362 15.8982C46.7531 15.8634 46.7794 15.8342 46.8122 15.8137C46.845 15.7932 46.8828 15.7824 46.9214 15.7824C46.96 15.7824 46.9979 15.7932 47.0306 15.8137C47.0634 15.8342 47.0897 15.8634 47.1067 15.8982L47.4737 16.8719C47.6091 17.2332 47.8781 17.5287 48.2251 17.6974L48.8723 18.0135C48.8958 18.0248 48.9167 18.0407 48.934 18.0602C48.9513 18.0797 48.9646 18.1024 48.9731 18.1271C48.9816 18.1517 48.9851 18.1778 48.9836 18.2038C48.982 18.2298 48.9752 18.2552 48.9638 18.2786C48.9449 18.3186 48.9125 18.3505 48.8723 18.3689L48.2251 18.685C47.8783 18.8534 47.6094 19.1485 47.4737 19.5094L47.1067 20.4843C47.0978 20.5088 47.0841 20.5312 47.0664 20.5504C47.0487 20.5695 47.0274 20.5849 47.0037 20.5957C46.9799 20.6065 46.9543 20.6125 46.9282 20.6132C46.9022 20.6139 46.8762 20.6095 46.8519 20.6C46.8255 20.5901 46.8015 20.5746 46.7815 20.5547C46.7616 20.5347 46.7461 20.5107 46.7362 20.4843L46.3703 19.5094C46.2344 19.1483 45.965 18.8532 45.6177 18.685L44.9717 18.3689C44.9481 18.3577 44.927 18.3418 44.9096 18.3224C44.8922 18.303 44.8788 18.2803 44.8702 18.2556C44.8616 18.231 44.8579 18.2049 44.8595 18.1788C44.861 18.1528 44.8676 18.1273 44.879 18.1038Z" fill="#D8BC6B"/>
<path id="Vector_3" d="M47.5072 28.2833H35.3502V47.3872C35.35 47.7305 35.2481 48.0661 35.0572 48.3515C34.8664 48.6369 34.5953 48.8594 34.2781 48.9908C34.0676 49.0789 33.8417 49.1242 33.6135 49.1239C33.3853 49.1239 33.1594 49.0789 32.9486 48.9914C32.7378 48.904 32.5463 48.7759 32.3851 48.6145L30.14 46.3695L27.8939 48.6145C27.651 48.8571 27.3417 49.0222 27.005 49.0891C26.6683 49.156 26.3194 49.1216 26.0022 48.9903C25.6851 48.859 25.4139 48.6366 25.2231 48.3513C25.0322 48.066 24.9302 47.7305 24.9299 47.3872V28.2833H23.9562L11.0361 35.7419V57.9233C11.0361 58.3839 11.2191 58.8256 11.5448 59.1513C11.8705 59.477 12.3122 59.66 12.7729 59.66H47.5072C47.9678 59.66 48.4096 59.477 48.7353 59.1513C49.061 58.8256 49.2439 58.3839 49.2439 57.9233V30.02C49.2439 29.5594 49.061 29.1177 48.7353 28.792C48.4096 28.4663 47.9678 28.2833 47.5072 28.2833Z" fill="#D8BC6B"/>
<path id="Vector_4" d="M43.426 11.0251L39.9526 5.00451C39.7223 4.60564 39.343 4.31459 38.8981 4.19539C38.4532 4.07618 37.9791 4.13858 37.5802 4.36887L32.2369 7.45329C32.2369 6.24106 31.9544 4.92694 31.3315 3.85018C30.5568 2.50914 29.3561 1.46546 27.9202 0.884943C26.4844 0.304427 24.8957 0.220372 23.4066 0.64613C21.9176 1.07189 20.6135 1.98304 19.7015 3.23483C18.7895 4.48663 18.3221 6.00727 18.3733 7.55518L18.3849 7.92221C18.3849 7.9361 18.3849 7.94768 18.3849 7.96157L18.5551 13.0907L14.2712 10.4219H14.2642L13.9528 10.2274C13.1703 9.71609 12.2927 9.36795 11.3726 9.2038C10.4524 9.03965 9.50859 9.06289 8.59761 9.27211C7.68663 9.48133 6.82725 9.87223 6.07092 10.4214C5.31458 10.9706 4.67683 11.6668 4.19589 12.4682C3.71495 13.2697 3.40071 14.16 3.27195 15.0857C3.1432 16.0115 3.20257 16.9538 3.44656 17.8561C3.69054 18.7584 4.11411 19.6021 4.69189 20.3369C5.26966 21.0716 5.98977 21.6822 6.80908 22.132L1.36736 25.2072C1.1697 25.3212 0.996441 25.4731 0.857509 25.6541C0.718577 25.8352 0.616685 26.0418 0.557653 26.2622C0.498622 26.4826 0.483607 26.7126 0.513472 26.9388C0.543337 27.165 0.617483 27.3831 0.731693 27.5807L4.32091 33.6013C4.55122 34.0002 4.93056 34.2913 5.37546 34.4105C5.82037 34.5297 6.29441 34.4673 6.6933 34.237L42.7892 13.3963C43.1881 13.166 43.4792 12.7867 43.5984 12.3418C43.7176 11.8969 43.6552 11.4229 43.4249 11.024L43.426 11.0251ZM12.0111 19.1298C11.4785 19.4367 10.874 19.5968 10.2594 19.5937C9.64469 19.5906 9.04185 19.4245 8.51239 19.1122C7.98292 18.8 7.5458 18.3528 7.24566 17.8164C6.94552 17.2799 6.79309 16.6735 6.80396 16.0589C6.81483 15.4443 6.98861 14.8436 7.30754 14.3181C7.62647 13.7927 8.07914 13.3612 8.61932 13.0679C9.1595 12.7746 9.76784 12.6298 10.3822 12.6485C10.9966 12.6671 11.5951 12.8485 12.1165 13.174L17.0256 16.2341L12.0111 19.1298ZM28.6709 8.33786C28.5539 8.77886 28.3503 9.19218 28.072 9.55375C27.7937 9.91532 27.4463 10.2179 27.0499 10.4439L22.0343 13.3384L21.8386 7.4336C21.811 6.65813 22.0439 5.89577 22.5001 5.26807C22.9563 4.64038 23.6095 4.18353 24.3556 3.97035C25.1017 3.75718 25.8977 3.79998 26.6167 4.09192C27.3356 4.38385 27.9361 4.90811 28.3224 5.5811C28.7898 6.42276 28.9146 7.41228 28.6709 8.34365V8.33786Z" fill="#D8BC6B"/>
</g>
<defs>
<clipPath id="clip0_146_740">
<rect width="59.28" height="59.28" fill="white" transform="translate(0.5 0.380005)"/>
</clipPath>
</defs>
</svg>
