<svg width="52" height="52" viewBox="0 0 52 52" fill="none" xmlns="http://www.w3.org/2000/svg">
<g id="Icon" clip-path="url(#clip0_146_775)">
<path id="Vector" d="M32.8705 19.2015C49.6196 19.2015 48.3818 19.2015 48.6402 19.2075C48.4843 18.6102 48.172 18.0652 47.7353 17.6289L43.1433 13.0367C42.6558 12.5515 42.034 12.2238 41.3581 12.096C40.6823 11.9682 39.9837 12.0461 39.3527 12.3198C39.015 12.47 38.6397 12.5144 38.2763 12.4469C37.9129 12.3795 37.5785 12.2035 37.3172 11.9422C37.0558 11.6808 36.8798 11.3464 36.8124 10.983C36.745 10.6196 36.7894 10.2443 36.9396 9.90656C37.2137 9.27546 37.292 8.57655 37.1642 7.90044C37.0363 7.22434 36.7083 6.60224 36.2227 6.11479L31.6307 1.52264C30.9756 0.868709 30.0879 0.501434 29.1623 0.501434C28.2367 0.501434 27.3489 0.868709 26.6939 1.52264L20.9526 7.2661C22.5724 8.88597 31.2617 17.5796 32.8705 19.2015Z" fill="#D8BC6B"/>
<path id="Vector_2" d="M18.8122 9.40683L9.02295 19.2015H28.5914L18.8122 9.40683Z" fill="#D8BC6B"/>
<path id="Vector_3" d="M49.7061 35.3982C50.346 35.1455 50.8953 34.7065 51.2829 34.138C51.6705 33.5695 51.8785 32.8978 51.8799 32.2097V25.7152C51.8786 24.7897 51.5103 23.9025 50.8559 23.248C50.2015 22.5936 49.3144 22.2254 48.3889 22.224H41.2812V51.981H48.3889C49.3144 51.98 50.2018 51.6118 50.8562 50.9573C51.5107 50.3029 51.8788 49.4155 51.8799 48.4899V41.9953C51.878 41.3076 51.6699 40.6363 51.2823 40.0682C50.8948 39.5002 50.3457 39.0615 49.7061 38.8089C49.3624 38.6756 49.067 38.4415 48.8588 38.1374C48.6505 37.8332 48.5391 37.4732 48.5391 37.1045C48.5391 36.7359 48.6505 36.3759 48.8588 36.0717C49.067 35.7676 49.3624 35.5335 49.7061 35.4002V35.3982Z" fill="#D8BC6B"/>
<path id="Vector_4" d="M3.89089 22.225C2.96544 22.2258 2.07811 22.5938 1.42363 23.2481C0.769143 23.9024 0.400967 24.7897 0.399902 25.7152V32.2097C0.401198 32.8975 0.609017 33.5691 0.996427 34.1374C1.38384 34.7057 1.93298 35.1446 2.57272 35.3972C2.91631 35.5307 3.21154 35.7649 3.4197 36.0691C3.62787 36.3734 3.73925 36.7334 3.73925 37.102C3.73925 37.4707 3.62787 37.8307 3.4197 38.1349C3.21154 38.4391 2.91631 38.6734 2.57272 38.8069C1.9329 39.0596 1.38372 39.4987 0.996316 40.0672C0.608911 40.6357 0.401133 41.3074 0.399902 41.9953V48.4889C0.400435 49.4147 0.768374 50.3025 1.42292 50.9573C2.07746 51.612 2.9651 51.9802 3.89089 51.981H38.2528V22.225H3.89089ZM29.9014 34.8492L25.8011 38.8461C25.7449 38.9009 25.7028 38.9685 25.6785 39.0431C25.6542 39.1177 25.6483 39.1971 25.6613 39.2744L26.6296 44.9193C26.6451 45.0086 26.6353 45.1004 26.6012 45.1843C26.5671 45.2682 26.5101 45.3408 26.4368 45.394C26.3634 45.4471 26.2767 45.4786 26.1863 45.4848C26.096 45.491 26.0057 45.4717 25.9257 45.4291L20.8562 42.7645C20.7867 42.7279 20.7094 42.7088 20.6309 42.7088C20.5524 42.7088 20.4751 42.7279 20.4057 42.7645L15.3371 45.4291C15.2572 45.4717 15.1669 45.491 15.0766 45.4848C14.9862 45.4786 14.8994 45.4471 14.8261 45.394C14.7527 45.3408 14.6958 45.2682 14.6617 45.1843C14.6276 45.1004 14.6178 45.0086 14.6333 44.9193L15.6006 39.2744C15.6138 39.1971 15.6081 39.1178 15.584 39.0432C15.5598 38.9686 15.5179 38.9009 15.4618 38.8461L11.3615 34.8492C11.2967 34.7863 11.2509 34.7064 11.2291 34.6188C11.2074 34.5311 11.2106 34.4391 11.2384 34.3532C11.2663 34.2673 11.3176 34.1909 11.3866 34.1326C11.4557 34.0744 11.5396 34.0367 11.629 34.0237L17.2968 33.2002C17.3744 33.1886 17.448 33.1584 17.5114 33.1122C17.5748 33.066 17.6261 33.0051 17.6608 32.9347L20.2016 27.7996C20.2415 27.7186 20.3033 27.6503 20.38 27.6026C20.4566 27.5549 20.5452 27.5296 20.6355 27.5296C20.7258 27.5296 20.8143 27.5549 20.891 27.6026C20.9676 27.6503 21.0294 27.7186 21.0693 27.7996L23.6041 32.9347C23.6388 33.0051 23.69 33.0661 23.7534 33.1123C23.8168 33.1585 23.8905 33.1887 23.9681 33.2002L29.6359 34.0237C29.7251 34.037 29.8088 34.0749 29.8776 34.1333C29.9464 34.1917 29.9974 34.2681 30.025 34.354C30.0526 34.4398 30.0557 34.5317 30.0338 34.6192C30.012 34.7067 29.9661 34.7864 29.9014 34.8492Z" fill="#D8BC6B"/>
</g>
<defs>
<clipPath id="clip0_146_775">
<rect width="51.48" height="51.48" fill="white" transform="translate(0.399902 0.500031)"/>
</clipPath>
</defs>
</svg>
