<svg width="75" height="101" viewBox="0 0 75 101" fill="none" xmlns="http://www.w3.org/2000/svg">
<g id="Ruby" clip-path="url(#clip0_157_792)">
<path id="Vector" d="M48.6899 84.0608L53.7916 100.992L75.0001 80.7498V80.6635L58.0286 75.5715L48.6899 84.0608Z" fill="#952149"/>
<path id="Vector_2" d="M58.0287 53.2343L75.0002 48.1423L54.6171 14.1461L44.2251 27.6567L58.0287 53.2343Z" fill="#681732"/>
<path id="Vector_3" d="M54.6169 14.1461L37.5039 0V0.89443L44.2249 27.6567L54.6169 14.1461Z" fill="#51142A"/>
<path id="Vector_4" d="M58.0283 75.5715L74.9998 80.6635V48.1423L58.0283 53.2343V75.5715Z" fill="#821D3A"/>
<path id="Vector_5" d="M26.3101 84.0608L21.2085 100.992L0 80.7498V80.6635L16.9715 75.5715L26.3101 84.0608Z" fill="#E5758A"/>
<path id="Vector_6" d="M16.9715 53.2343L0 48.1423L20.3831 14.1461L30.7751 27.6567L16.9715 53.2343Z" fill="#952149"/>
<path id="Vector_7" d="M26.3103 84.0608H37.5041H48.6901L58.0287 75.5716V53.2343L44.2251 27.6568L37.5041 22.7688L30.7753 27.6568L16.9717 53.2343V75.5716L26.3103 84.0608Z" fill="#D26A83"/>
<path id="Vector_8" d="M20.3833 14.1461L37.5041 0V0.89443L30.7753 27.6567L20.3833 14.1461Z" fill="#821D3A"/>
<path id="Vector_9" d="M16.9715 75.5715L0 80.6635V48.1423L16.9715 53.2343V75.5715Z" fill="#E15367"/>
<path id="Vector_10" d="M37.5038 22.7687L44.2247 27.6567L37.5038 0.894409L30.7749 27.6567L37.5038 22.7687Z" fill="#681732"/>
<path id="Vector_11" d="M37.504 100.992H53.7916L48.6899 84.0608H37.504H26.3102L21.2085 100.992H37.504Z" fill="#E15367"/>
</g>
<defs>
<clipPath id="clip0_157_792">
<rect width="75" height="101" fill="white"/>
</clipPath>
</defs>
</svg>
