<svg width="101" height="102" viewBox="0 0 101 102" fill="none" xmlns="http://www.w3.org/2000/svg">
<g id="Saphire" clip-path="url(#clip0_146_641)">
<path id="Vector" d="M52.9072 65.4636L57.6418 101.18L100.62 58.2018L64.9036 53.4672L52.9072 65.4636Z" fill="#2339AF"/>
<path id="Vector_2" d="M35.7162 53.4672L0 58.2018L42.978 101.18L47.7126 65.4636L35.7162 53.4672Z" fill="#5168E1"/>
<path id="Vector_3" d="M64.9038 53.4672L100.62 58.2018V43.5378L64.9038 48.2724V53.4672Z" fill="#5168E1"/>
<path id="Vector_4" d="M47.7126 65.4636L42.978 101.18H57.642L52.9074 65.4636H47.7126Z" fill="#2E46CC"/>
<path id="Vector_5" d="M64.9036 48.2724L100.62 43.5378L57.6418 0.559814L52.9072 36.276L64.9036 48.2724Z" fill="#12289F"/>
<path id="Vector_6" d="M47.7126 36.276L42.978 0.559814L0 43.5378L35.7162 48.2724L47.7126 36.276Z" fill="#2339AF"/>
<path id="Vector_7" d="M35.7162 53.4672V48.2724L0 43.5378V58.2018L35.7162 53.4672Z" fill="#2E46CC"/>
<path id="Vector_8" d="M52.9074 36.276L57.642 0.559814H42.978L47.7126 36.276H52.9074Z" fill="#5168E1"/>
<path id="Vector_9" d="M52.9075 65.4636L64.9039 53.4672V48.2724L52.9075 36.276H47.7127L35.7163 48.2724V53.4672L47.7127 65.4636H52.9075Z" fill="#92AAFF"/>
</g>
<defs>
<clipPath id="clip0_146_641">
<rect width="100.62" height="100.62" fill="white" transform="translate(0 0.559814)"/>
</clipPath>
</defs>
</svg>
