<svg width="78" height="103" viewBox="0 0 78 103" fill="none" xmlns="http://www.w3.org/2000/svg">
<g id="Turquoise" clip-path="url(#clip0_146_684)">
<path id="Vector" d="M59.1062 75.7221L77.7872 84.6297V19.1097L59.1062 28.0173V75.7221Z" fill="#008267"/>
<path id="Vector_2" d="M28.187 84.5284L19.0298 102.96H59.4572L50.3 84.5284H28.187Z" fill="#009C81"/>
<path id="Vector_3" d="M19.3729 75.7222L0.699707 84.6298L19.0297 102.96L28.1869 84.5284L19.3729 75.7222Z" fill="#45B9A2"/>
<path id="Vector_4" d="M50.2998 84.5284L59.457 102.96L77.787 84.6298L59.106 75.7222L50.2998 84.5284Z" fill="#00634A"/>
<path id="Vector_5" d="M28.1869 19.2112L19.0297 0.779785L0.699707 19.1098L19.3729 28.0174L28.1869 19.2112Z" fill="#00634A"/>
<path id="Vector_6" d="M19.3729 75.7221V28.0173L0.699707 19.1097V84.6297L19.3729 75.7221Z" fill="#009C81"/>
<path id="Vector_7" d="M59.106 28.0174L77.787 19.1098L59.457 0.779785L50.2998 19.2112L59.106 28.0174Z" fill="#00634A"/>
<path id="Vector_8" d="M50.3 19.2112L59.4572 0.779785H19.0298L28.187 19.2112H50.3Z" fill="#008267"/>
<path id="Vector_9" d="M50.2998 84.5284L59.106 75.7222V28.0174L50.2998 19.2112H28.1868L19.3728 28.0174V75.7222L28.1868 84.5284H50.2998Z" fill="#46C5AC"/>
</g>
<defs>
<clipPath id="clip0_146_684">
<rect width="77.0874" height="102.18" fill="white" transform="translate(0.699707 0.779785)"/>
</clipPath>
</defs>
</svg>
