<svg width="62" height="44" viewBox="0 0 62 44" fill="none" xmlns="http://www.w3.org/2000/svg">
<g id="Layer_1" clip-path="url(#clip0_146_730)">
<path id="Vector" d="M57.4603 3.14003C56.741 3.20546 56.0557 3.47493 55.4858 3.91644C54.9159 4.35795 54.4854 4.95295 54.2453 5.63075C54.0052 6.30855 53.9657 7.04066 54.1315 7.74014C54.2973 8.43962 54.6613 9.07706 55.1804 9.57674C53.6406 13.1052 51.4261 16.0367 48.954 17.9848C46.3205 20.0666 43.4116 21.0211 40.7212 20.4352C38.9154 20.0285 37.4325 18.9783 36.3201 17.4369C34.9138 15.4972 34.0861 12.7942 33.9815 9.69931C34.6269 9.23773 35.1478 8.62476 35.498 7.91479C35.8481 7.20483 36.0168 6.41983 35.9889 5.62947C35.9603 4.79653 35.7155 3.98513 35.2783 3.27422C34.8412 2.5633 34.2265 1.97708 33.4942 1.57258C32.7619 1.16808 31.9368 0.959086 31.0992 0.965922C30.2616 0.972757 29.4401 1.19519 28.7145 1.61159C27.9889 2.02798 27.384 2.62416 26.9586 3.34211C26.5332 4.06007 26.3019 4.87535 26.287 5.70865C26.2722 6.54194 26.4744 7.36487 26.8739 8.09738C27.2734 8.82988 27.8567 9.44701 28.567 9.88873C28.4392 12.9752 27.5899 15.668 26.1295 17.5781C25.0367 19.035 23.5911 20.0471 21.8423 20.4352C19.0949 21.0499 16.1002 20.0192 13.42 17.8353C10.9862 15.8389 8.80899 12.8972 7.29811 9.36967C7.83968 8.76242 8.16818 7.99645 8.23411 7.18724C8.30004 6.37802 8.0998 5.56941 7.66361 4.88329C7.22741 4.19716 6.57892 3.67071 5.81582 3.38329C5.05271 3.09587 4.21637 3.06304 3.43288 3.28977C2.6494 3.5165 1.96123 3.99049 1.47208 4.6403C0.982933 5.29011 0.719287 6.08052 0.720955 6.89238C0.722623 7.70425 0.989517 8.49358 1.48133 9.14139C1.97315 9.78921 2.66324 10.2604 3.44765 10.4839L10.1211 30.2286C10.4756 31.2773 11.152 32.1888 12.055 32.8346C12.958 33.4803 14.0419 33.8277 15.1539 33.8277H47.1165C48.2283 33.8278 49.312 33.4806 50.2149 32.835C51.1177 32.1895 51.794 31.2781 52.1484 30.2296L58.8312 10.4737C59.7318 10.2169 60.504 9.63531 60.9968 8.84247C61.4897 8.04964 61.6678 7.1025 61.4966 6.18597C61.3253 5.26945 60.8168 4.44934 60.0705 3.88578C59.3242 3.32222 58.3935 3.05567 57.4603 3.13817V3.14003Z" fill="#D8BC6B"/>
<path id="Vector_2" d="M38.4797 15.646C38.5161 15.6998 38.5525 15.7537 38.5908 15.8066C39.329 16.828 40.2491 17.4706 41.3307 17.7166C43.0842 18.0946 45.1737 17.4158 47.21 15.8038C47.3257 15.711 47.4405 15.6181 47.5543 15.5253C46.7455 13.694 46.3434 11.7107 46.3757 9.71068C47.0767 9.38807 47.6497 8.84228 48.0043 8.15952C48.3588 7.47676 48.4747 6.69594 48.3336 5.94036C48.1925 5.18478 47.8024 4.49751 47.225 3.98709C46.6476 3.47667 45.9157 3.17219 45.145 3.12172C44.3743 3.07126 43.6086 3.2777 42.969 3.70843C42.3293 4.13916 41.8521 4.76965 41.6127 5.50031C41.3733 6.23097 41.3853 7.02017 41.6469 7.74327C41.9085 8.46637 42.4047 9.08216 43.0572 9.4934C42.3675 11.5771 40.7279 13.631 38.4797 15.646Z" fill="#D8BC6B"/>
<path id="Vector_3" d="M15.9109 9.70882C15.9408 11.6438 15.5638 13.5637 14.8041 15.3451C14.9347 15.4612 15.0672 15.5754 15.2007 15.685C17.2976 17.3935 19.4393 18.1178 21.2283 17.7176C22.267 17.4873 23.1601 16.8819 23.8861 15.9115L23.9029 15.8902C23.9253 15.8605 23.9477 15.8289 23.9692 15.7973C21.6361 13.7183 19.9311 11.6189 19.2191 9.48969C19.8707 9.07941 20.3664 8.4648 20.6277 7.74295C20.8891 7.0211 20.9013 6.23318 20.6623 5.50368C20.4234 4.77418 19.9469 4.14469 19.3083 3.71468C18.6697 3.28468 17.9052 3.07867 17.1358 3.1292C16.3664 3.17974 15.6358 3.48394 15.0595 3.99374C14.4832 4.50354 14.0941 5.18988 13.9536 5.9443C13.8131 6.69872 13.9292 7.47821 14.2837 8.15962C14.6382 8.84102 15.2107 9.38548 15.9109 9.70697V9.70882Z" fill="#D8BC6B"/>
<path id="Vector_4" d="M16.6163 37.6647H47.0232C47.7449 37.665 48.4369 37.9503 48.9472 38.4581C49.4574 38.9658 49.7442 39.6543 49.7445 40.3724C49.7442 41.0904 49.4574 41.779 48.9472 42.2867C48.4369 42.7944 47.7449 43.0798 47.0232 43.08H16.6163C16.2589 43.08 15.9051 43.01 15.5749 42.8739C15.2447 42.7379 14.9447 42.5384 14.692 42.287C14.4393 42.0356 14.2389 41.7371 14.1022 41.4086C13.9654 41.0801 13.895 40.728 13.895 40.3724C13.895 39.6543 14.1817 38.9656 14.692 38.4578C15.2024 37.95 15.8946 37.6647 16.6163 37.6647Z" fill="#D8BC6B"/>
</g>
<defs>
<clipPath id="clip0_146_730">
<rect width="60.84" height="42.12" fill="white" transform="translate(0.719971 0.960022)"/>
</clipPath>
</defs>
</svg>
