<svg width="26" height="32" viewBox="0 0 26 32" fill="none" xmlns="http://www.w3.org/2000/svg">
<path d="M2.67467 19.1311V28.4097C2.67467 29.3454 3.42574 30.1039 4.35232 30.1039H4.8748L4.91562 30.3141C5.11563 31.3116 5.98915 32 6.96064 32C7.09534 32 7.23821 31.9876 7.37699 31.9588L16.4469 30.1039H21.6472C22.4758 30.1039 23.1616 29.4979 23.3004 28.7024L24.329 28.4922C24.876 28.3809 25.3454 28.0594 25.6515 27.5936C25.9618 27.1237 26.0679 26.559 25.9577 26.0107L23.3249 12.8739V3.59529C23.3249 2.6596 22.5738 1.90115 21.6472 1.90115H21.1247L21.0839 1.69093C20.9696 1.13858 20.6553 0.664552 20.19 0.35128C19.7247 0.04213 19.1695 -0.069164 18.6226 0.04213L9.53222 1.90115H4.35232C3.52778 1.90115 2.83795 2.50296 2.69916 3.29851L1.67053 3.50873C0.543931 3.73956 -0.186725 4.8525 0.0418601 5.99018L2.67467 19.1311ZM23.3249 17.0248L25.1576 26.1715C25.227 26.5095 25.1617 26.8516 24.974 27.136C24.7862 27.4205 24.5005 27.6142 24.1657 27.6843L23.3249 27.8574V17.0248ZM7.21372 31.1509C6.879 31.2209 6.54021 31.1509 6.25856 30.9613C5.97691 30.7716 5.78506 30.4831 5.71567 30.1492L5.7075 30.1039H12.3324L7.21372 31.1509ZM21.0064 24.5309C21.1043 24.5309 21.1656 24.6381 21.1166 24.7247L20.7084 25.4337C20.8472 25.3595 21.0023 25.3182 21.1574 25.3182C21.3656 25.3182 21.5778 25.3883 21.7534 25.5326C22.1656 25.8665 22.2309 26.4724 21.9003 26.8887L20.7043 28.3932L20.5737 28.5581C20.4798 28.6777 20.3084 28.6777 20.2145 28.5581L20.1696 28.5004L18.8879 26.8887C18.5572 26.4724 18.6226 25.8665 19.0348 25.5326C19.2104 25.3883 19.4226 25.3182 19.6308 25.3182C19.7859 25.3182 19.941 25.3595 20.0798 25.4337L19.9777 25.2564L19.6757 24.7247C19.6267 24.6381 19.6879 24.5309 19.7859 24.5309H21.0064ZM18.7858 0.850042C18.8716 0.833554 18.9573 0.82531 19.043 0.82531C19.2879 0.82531 19.5287 0.899506 19.741 1.03965C20.0226 1.22927 20.2145 1.51781 20.2839 1.85169L20.292 1.90115H13.6468L18.7858 0.850042ZM8.42603 15.0957L12.4548 10.0174C12.7324 9.667 13.2631 9.667 13.5447 10.0174L17.5735 15.0957C18.5777 16.357 18.3736 18.1995 17.1286 19.2094C16.5898 19.6464 15.9489 19.8566 15.3122 19.8566C14.8427 19.8566 14.3774 19.737 13.957 19.5103L14.259 20.0421L15.1856 21.662C15.3366 21.9217 15.1489 22.2473 14.855 22.2473H11.1446C10.8507 22.2473 10.6629 21.9217 10.8139 21.662L11.7405 20.0421L12.0426 19.5103C11.6221 19.737 11.1527 19.8566 10.6833 19.8566C10.0506 19.8566 9.40976 19.6464 8.87504 19.2094C7.62598 18.1995 7.42189 16.357 8.42603 15.0957ZM4.09924 4.95143L5.14012 3.64064L5.42585 3.28202C5.51566 3.16661 5.69118 3.16661 5.78506 3.28202L5.94017 3.47576L7.11167 4.95143C7.4423 5.36775 7.37699 5.97369 6.96472 6.30757C6.7892 6.45184 6.57694 6.52191 6.36877 6.52191C6.21366 6.52191 6.05855 6.48069 5.91976 6.4065L6.02181 6.58374L6.32387 7.11548C6.37285 7.20204 6.31162 7.30922 6.21366 7.30922H4.99318C4.89521 7.30922 4.83398 7.20204 4.88296 7.11548L5.29115 6.4065C5.15237 6.48069 4.99726 6.52191 4.84215 6.52191C4.63397 6.52191 4.42171 6.45184 4.24619 6.30757C3.83392 5.97369 3.76861 5.36775 4.09924 4.95143ZM1.8338 4.31664L2.67467 4.14352V14.9761L0.841908 5.82942C0.703124 5.13692 1.14805 4.45679 1.8338 4.31664Z" fill="#A0A3A7"/>
</svg>
