<svg width="30" height="28" viewBox="0 0 30 28" fill="none" xmlns="http://www.w3.org/2000/svg">
<path d="M24.3212 6.85034C23.8841 6.85034 23.5288 6.50159 23.5288 6.06995C23.5288 5.63951 23.8829 5.28956 24.3212 5.28956H26.9606C27.3977 5.28956 27.753 5.6383 27.753 6.06995V22.013H29.2077C29.6447 22.013 30 22.3617 30 22.7934V24.5151C30 25.4735 29.6014 26.3454 28.9613 26.977C28.32 27.6086 27.4348 28 26.4617 28H3.53829C2.56519 28 1.67999 27.6074 1.0387 26.977C0.397407 26.3454 0 25.4735 0 24.5151V22.7934C0 22.3629 0.354082 22.013 0.792343 22.013H2.24702V6.06995C2.24702 5.63951 2.6011 5.28956 3.03936 5.28956H5.67885C6.11587 5.28956 6.47119 5.6383 6.47119 6.06995C6.47119 6.50038 6.11711 6.85034 5.67885 6.85034H3.83171V22.013H26.1694V6.85034H24.3212ZM7.78718 4.99448C7.51481 5.33101 7.01835 5.38711 6.67542 5.11885C6.33373 4.85059 6.27678 4.36162 6.54914 4.02387C7.55444 2.77768 8.83952 1.75709 10.3128 1.05474C11.7328 0.379207 13.3237 0 15 0C16.6762 0 18.2682 0.379207 19.6871 1.05474C21.1604 1.75466 22.4455 2.77647 23.4508 4.02387C23.7231 4.36041 23.6662 4.85059 23.3245 5.11885C22.9828 5.38712 22.4851 5.33102 22.2127 4.99448C21.3535 3.92753 20.2554 3.05571 18.9999 2.45943C17.7929 1.88513 16.436 1.5632 14.9999 1.5632C13.5638 1.5632 12.2069 1.8851 10.9998 2.45943C9.74446 3.05693 8.64754 3.92875 7.78829 4.99448H7.78718ZM9.83488 6.59427C9.56251 6.93081 9.06605 6.9869 8.72312 6.71865C8.38143 6.45039 8.32448 5.96142 8.59684 5.62367C9.35822 4.67868 10.3326 3.9056 11.448 3.37396C12.5239 2.86184 13.7297 2.57407 15 2.57407C16.2689 2.57407 17.4748 2.86184 18.5519 3.37396C19.6673 3.90438 20.6417 4.67868 21.4031 5.62367C21.6754 5.9602 21.6185 6.45038 21.2768 6.71865C20.9351 6.98691 20.4374 6.93082 20.165 6.59427C19.5485 5.82974 18.7636 5.20543 17.8648 4.77865C17.0018 4.36895 16.03 4.13727 15.0012 4.13727C13.9724 4.13727 13.0005 4.36772 12.1376 4.77865C11.2388 5.20665 10.4526 5.83096 9.83732 6.59427H9.83488ZM11.8826 8.19285C11.6102 8.52939 11.1137 8.58548 10.7708 8.31723C10.4291 8.04897 10.3722 7.56 10.6445 7.22225C11.162 6.57965 11.8244 6.0541 12.5833 5.69319C13.3162 5.34445 14.137 5.14935 15 5.14935C15.8629 5.14935 16.6824 5.34567 17.4166 5.69319C18.1755 6.0541 18.8379 6.57965 19.3554 7.22225C19.6277 7.55878 19.5708 8.04896 19.2291 8.31723C18.8874 8.5855 18.3897 8.5294 18.1173 8.19285C17.7459 7.73071 17.2705 7.35515 16.7295 7.09666C16.2108 6.84913 15.6239 6.71133 15.0012 6.71133C14.3797 6.71133 13.7929 6.85034 13.2729 7.09666C12.7307 7.35394 12.2565 7.73196 11.8851 8.19285H11.8826ZM17.5193 15.1299L13.2258 17.5735C12.8482 17.7893 12.3641 17.6613 12.1462 17.2894C12.0744 17.1662 12.0397 17.0321 12.0397 16.8992L12.0373 11.9668C12.0373 11.5364 12.3913 11.1864 12.8296 11.1864C12.9955 11.1864 13.1478 11.2364 13.2753 11.3218L17.5625 13.7605C17.9401 13.9763 18.0689 14.4531 17.8509 14.8237C17.7705 14.9615 17.6529 15.0639 17.5191 15.131L17.5193 15.1299Z" fill="#A0A3A7"/>
</svg>
