<svg width="30" height="30" viewBox="0 0 30 30" fill="none" xmlns="http://www.w3.org/2000/svg">
<path d="M19.65 11.7155L16.8178 12.8876L16.73 12.8177C16.3215 12.4928 15.8335 12.2913 15.3194 12.2323L15.207 12.22L14.0349 9.38913C14.0157 9.34389 13.9897 9.30414 13.9554 9.2685L12.3118 7.57822C12.2405 7.50419 12.1404 7.46169 12.0376 7.46169C11.9869 7.46169 11.9375 7.47129 11.8909 7.49048C11.7456 7.5508 11.6524 7.692 11.6551 7.84964L11.6866 10.2061C11.688 10.2541 11.6976 10.3021 11.7154 10.3473L12.8875 13.1796L12.8176 13.2673C12.4927 13.6758 12.2912 14.1638 12.2322 14.6779L12.2199 14.7903L9.38903 15.9624C9.34379 15.9816 9.30404 16.0076 9.26839 16.0419L7.57811 17.6856C7.4657 17.7953 7.43143 17.9611 7.49175 18.1064C7.5507 18.2504 7.69053 18.3422 7.8509 18.3422L10.2074 18.3107C10.2554 18.3093 10.3034 18.2997 10.3486 18.2819L13.1808 17.1098L13.2686 17.1797C13.6771 17.5046 14.1651 17.7062 14.6792 17.7651L14.7916 17.7775L15.9637 20.6083C15.9829 20.6535 16.0089 20.6933 16.0432 20.7289L17.6869 22.4192C17.7581 22.4932 17.8582 22.5357 17.961 22.5357C18.0117 22.5357 18.0611 22.5261 18.1077 22.507C18.253 22.4466 18.3462 22.3054 18.3435 22.1478L18.312 19.7913C18.3106 19.7433 18.301 19.6953 18.2832 19.6501L17.1111 16.8179L17.181 16.7301C17.5059 16.3216 17.7074 15.8336 17.7664 15.3195L17.7787 15.2071L20.6096 14.035C20.6548 14.0158 20.6946 13.9898 20.7302 13.9555L22.4205 12.3118C22.5329 12.2022 22.5672 12.0363 22.5069 11.891C22.4479 11.7498 22.3053 11.6552 22.1477 11.6552L19.7912 11.6867C19.7432 11.6881 19.6952 11.6977 19.65 11.7155ZM15 17.0207C13.8855 17.0207 12.9793 16.1146 12.9793 15.0001C12.9793 13.8855 13.8855 12.9794 15 12.9794C16.1145 12.9794 17.0207 13.8855 17.0207 15.0001C17.0207 16.1146 16.1145 17.0207 15 17.0207ZM15 0C6.72968 0 0 6.72968 0 15C0 23.2703 6.72968 30 15 30C23.2717 30 30 23.2703 30 15C30 6.72828 23.2703 0 15 0ZM25.05 25.05C22.3658 27.7341 18.7976 29.2132 15 29.2132C11.2042 29.2132 7.63441 27.7354 4.95005 25.05C2.2659 22.3658 0.786814 18.7976 0.786814 15C0.786814 11.2042 2.2646 7.63441 4.95005 4.95005C7.6342 2.2659 11.2024 0.786814 15 0.786814C18.7958 0.786814 22.3656 2.2646 25.05 4.95005C27.7341 7.6342 29.2132 11.2024 29.2132 15C29.2132 18.7958 27.7354 22.3656 25.05 25.05ZM15 1.55327C7.58493 1.55327 1.55327 7.58528 1.55327 15C1.55327 22.4147 7.58528 28.4467 15 28.4467C22.4147 28.4467 28.4467 22.4147 28.4467 15C28.4467 7.58528 22.4147 1.55327 15 1.55327ZM24.174 6.36786L24.3083 6.51591C25.161 7.45086 25.8657 8.50369 26.4044 9.64562L26.4894 9.82795L23.8121 10.937L23.7326 10.7752C23.3419 9.97189 22.8415 9.22477 22.2438 8.55306L22.1232 8.41872L24.174 6.36786ZM15.3825 2.40326L15.5827 2.41285C16.8494 2.47043 18.0927 2.71856 19.2785 3.14766L19.4663 3.2162L18.3572 5.89488L18.1859 5.83593C17.3414 5.54119 16.4586 5.36574 15.562 5.31362L15.3824 5.30402L15.3825 2.40326ZM6.5142 5.69061C7.44915 4.83792 8.50198 4.1333 9.64391 3.59453L9.82624 3.50954L10.9353 6.18685L10.7735 6.26636C9.97018 6.65706 9.22306 7.15743 8.55135 7.75513L8.41701 7.87576L6.36757 5.82633L6.51563 5.69198L6.5142 5.69061ZM2.41238 14.4175C2.46996 13.1508 2.71808 11.9075 3.14719 10.7217L3.21573 10.5339L5.8944 11.643L5.83546 11.8143C5.54072 12.6588 5.36526 13.5416 5.31315 14.4382L5.30355 14.6178H2.40417L2.41376 14.4176L2.41238 14.4175ZM5.82586 23.6326L5.69152 23.4845C4.83883 22.5496 4.13421 21.4967 3.59544 20.3548L3.51045 20.1725L6.18775 19.0634L6.26726 19.2252C6.65797 20.0285 7.15834 20.7757 7.75603 21.4474L7.87667 21.5817L5.82586 23.6326ZM14.6173 27.5972L14.4172 27.5876C13.1505 27.53 11.9071 27.2819 10.7214 26.8528L10.5336 26.7842L11.6426 24.1055L11.814 24.1645C12.6584 24.4592 13.5413 24.6347 14.4379 24.6868L14.6174 24.6964L14.6173 27.5972ZM23.4857 24.3098C22.5507 25.1625 21.4979 25.8671 20.3559 26.4059L20.1736 26.4909L19.0646 23.8136L19.2263 23.7341C20.0297 23.3434 20.7768 22.843 21.4485 22.2453L21.5829 22.1247L23.6323 24.1741L23.4842 24.3084L23.4857 24.3098ZM14.9999 23.9397C10.0716 23.9397 6.06029 19.9298 6.06029 15.0001C6.06029 10.0704 10.0702 6.06054 14.9999 6.06054C19.9296 6.06054 23.9394 10.0704 23.9394 15.0001C23.9394 19.9298 19.9296 23.9397 14.9999 23.9397ZM26.8537 19.2788L26.7851 19.4666L24.1064 18.3576L24.1654 18.1862C24.4601 17.3418 24.6356 16.4589 24.6877 15.5623L24.6973 15.3828H27.5967L27.5871 15.5829C27.5295 16.8496 27.2814 18.093 26.8523 19.2787L26.8537 19.2788Z" fill="#A0A3A7"/>
</svg>
