<svg width="30" height="30" viewBox="0 0 30 30" fill="none" xmlns="http://www.w3.org/2000/svg">
<path d="M4.33247 19.9369C4.86746 15.0381 9.0694 11.6082 10.1544 7.08559C5.27122 8.75773 1.43755 12.8954 0.322024 18.1396C1.05428 21.6015 2.99117 24.6233 5.66605 26.7432C3.87713 23.5963 4.31732 20.1118 4.33247 19.9369Z" fill="#A0A3A7"/>
<path d="M11.6648 6.96799C10.832 11.825 6.41401 15.2072 5.79142 20.1191C5.78383 20.1779 5.2204 24.6971 8.16651 27.6237C9.67278 29.1667 12.0422 29.9582 14.2657 29.9999V6.29969C13.3931 6.33576 12.5356 6.45343 11.7066 6.64513C11.699 6.76281 11.6782 6.87289 11.663 6.96779L11.6648 6.96799Z" fill="#A0A3A7"/>
<path d="M21.3112 13.3851C20.0136 11.3049 18.6629 9.14307 18.3347 6.65847C17.4924 6.46108 16.6198 6.33582 15.732 6.29975V30C17.9667 29.9431 20.3494 29.2199 21.8764 27.6313C24.6992 24.8374 24.3178 20.5898 24.2666 20.1131C23.9593 17.6343 22.6105 15.4782 21.313 13.3865L21.3112 13.3851Z" fill="#A0A3A7"/>
<path d="M19.898 7.10647C20.9945 11.6351 25.1833 15.0308 25.7199 19.9427C25.8015 20.6696 26.0348 23.8013 24.4299 26.6694C27.0612 24.5493 28.9544 21.5563 29.6793 18.1376C28.5714 12.9143 24.7603 8.78619 19.898 7.10647Z" fill="#A0A3A7"/>
<path d="M19.8242 4.97292C19.7881 5.16272 19.7653 5.35443 19.7578 5.52334C24.2746 6.88801 28.0346 10.1526 30 14.4647C29.8103 8.91096 26.591 4.12252 21.9432 1.68724C21.3133 2.17123 20.1391 3.28752 19.8242 4.97292Z" fill="#A0A3A7"/>
<path d="M20.4763 1.01925C18.9946 0.432781 17.3974 0.0721546 15.7336 0V4.82663C16.6139 4.87029 17.4713 4.97278 18.3136 5.15689C18.3288 5.01074 18.3497 4.857 18.38 4.70137C18.7025 2.99317 19.67 1.76703 20.4763 1.01925Z" fill="#A0A3A7"/>
<path d="M11.6647 4.70181C11.6931 4.85555 11.7159 5.00169 11.7311 5.14974C12.5601 4.97323 13.4024 4.86314 14.2675 4.82708V0.000444845C12.617 0.0744653 11.0349 0.425598 9.56089 1.00449C10.3672 1.7599 11.3498 2.98409 11.6647 4.70181Z" fill="#A0A3A7"/>
<path d="M10.2932 5.50839C10.2667 3.81346 8.77559 2.12805 8.08695 1.67253C3.42399 4.10008 0.191344 8.90597 0 14.465C1.97293 10.1376 5.75586 6.86548 10.2932 5.50839Z" fill="#A0A3A7"/>
</svg>
