<svg width="43" height="27" viewBox="0 0 43 27" fill="none" xmlns="http://www.w3.org/2000/svg">
<path fill-rule="evenodd" clip-rule="evenodd" d="M32.7668 14.6292C31.2288 13.5004 29.3133 12.1005 27.653 11.1242C25.1271 9.63925 24.6461 10.0149 24.6409 10.0149C21.6909 12.5719 19.2512 13.9239 17.6252 13.9239C17.3407 13.9274 17.058 13.8778 16.7907 13.7768C16.1666 13.5305 15.7339 12.9404 15.6735 12.2565C15.4132 10.2541 17.4028 7.18308 20.5578 4.65637C20.0302 4.05745 19.1854 4.1939 17.4785 4.62979C16.0216 5.00191 14.3906 5.41834 12.7942 4.85129L6.98562 14.2055C7.0701 14.3136 7.16148 14.4129 7.26148 14.505L7.3201 14.4395V14.4377C7.94942 13.7023 8.92354 13.3834 9.85114 13.6102C10.5718 13.7856 11.1994 14.2392 11.6046 14.8772C12.5787 14.1684 13.827 13.9894 14.9546 14.3934C15.8408 14.746 16.4615 15.5753 16.5666 16.5464C17.5442 16.3798 18.539 16.72 19.2269 17.4536C19.8201 18.166 19.9718 19.1866 19.6752 20.3721C20.8252 20.7761 21.5183 21.4211 21.7407 22.3C22.0493 23.5191 21.0545 25.1015 20.639 25.6898C22.208 26.7796 23.4631 27.2013 24.2907 26.9107L24.289 26.9089C24.8304 26.6679 25.2372 26.1913 25.3993 25.6083L22.4924 23.4855H22.4941C22.3493 23.3862 22.251 23.2303 22.22 23.0549C22.189 22.8777 22.2286 22.6969 22.3286 22.5516C22.4286 22.4045 22.5838 22.3071 22.7545 22.2805C22.9269 22.2521 23.1028 22.2964 23.2424 22.4045L26.4838 24.7737C27.2994 25.1405 27.9459 25.2078 28.408 24.9722L28.4062 24.9704C28.9166 24.6319 29.2717 24.095 29.3925 23.4837L24.182 19.9894C23.8837 19.7891 23.7992 19.378 23.9941 19.0715C24.1889 18.7632 24.5889 18.6764 24.8889 18.8766L30.3818 22.5605C30.9267 22.7324 31.518 22.6633 32.0128 22.3709C32.3594 22.0449 32.5663 21.5931 32.5922 21.1111L25.6837 16.309C25.5389 16.2115 25.4389 16.0591 25.4044 15.8855C25.3716 15.71 25.4061 15.5293 25.5027 15.3822C25.5992 15.2351 25.7492 15.1341 25.9199 15.1022C26.0889 15.0686 26.2647 15.1076 26.4061 15.2103L33.5304 20.1576C34.4097 20.4216 35.3614 20.232 36.0804 19.649C36.4356 19.1741 36.589 18.5734 36.5062 17.9816C36.3821 17.3791 35.8873 16.7926 35.0356 16.2379C34.4856 15.8853 33.689 15.3041 32.7683 14.629L32.7668 14.6292ZM23.8081 9.00146C20.2236 12.1113 18.0375 12.8502 17.2545 12.5401C17.0701 12.4675 16.9494 12.2849 16.9511 12.0829C16.8011 10.9241 18.1976 8.08358 21.7718 5.37425C24.7356 3.61998 25.4821 3.99563 26.5166 4.51662V4.51839C27.2477 4.92949 28.0563 5.17225 28.8873 5.22719C29.3287 5.25377 29.7718 5.24313 30.2115 5.19352L36.2561 14.9306C36.1613 15.06 36.0372 15.1645 35.8941 15.2336C35.8372 15.1947 35.7803 15.1557 35.7217 15.1167C35.201 14.7836 34.4199 14.213 33.5148 13.5503C28.7682 10.0719 25.2941 7.71526 23.8044 9.00492L23.8081 9.00146ZM30.7581 3.60419C30.6012 3.34903 30.6736 3.01058 30.9201 2.84931L34.627 0.41814H34.6287C34.7477 0.340171 34.8925 0.313593 35.0305 0.343719C35.1684 0.375614 35.2873 0.462442 35.3649 0.584708L42.9165 12.751C42.9923 12.8733 43.0182 13.0221 42.9872 13.1639C42.9578 13.3056 42.8734 13.4279 42.7544 13.5059L39.0475 15.937C38.7993 16.0983 38.4699 16.0239 38.3113 15.7705L30.7581 3.60419ZM20.4907 22.6334C20.5856 23.0091 20.2838 23.9624 19.5355 24.9901C18.8321 25.9559 18.0976 26.4875 17.7631 26.4981C16.8459 26.5282 16.3149 26.1898 16.0373 25.3835L19.0907 21.572C19.9045 21.8236 20.3735 22.1763 20.4907 22.6334ZM16.0147 23.3245L14.9664 24.6304C14.0837 24.8165 13.4078 24.7669 13.0078 24.4816C12.7113 24.2441 12.5182 23.895 12.4682 23.5123L16.3337 17.9127C17.225 17.7621 17.8992 17.8986 18.2457 18.3167C18.6095 18.7562 18.6233 19.5429 18.2871 20.4874C17.3302 21.68 16.5733 22.6263 16.0147 23.3245ZM11.4456 22.6972C10.8783 22.7415 10.3163 22.5643 9.86972 22.2028C9.52144 21.8112 9.33353 21.2973 9.34042 20.7675C11.0973 18.6092 11.7439 17.0729 11.9749 16.2844V16.2862C12.6232 15.5987 13.5922 15.3453 14.4801 15.6305C15.0439 15.8733 15.3835 16.4705 15.3146 17.0942L11.4456 22.6972ZM8.33866 19.9311C7.81453 20.0924 7.25248 20.0357 6.76798 19.777C6.45763 19.481 6.28347 19.0629 6.2904 18.6269C6.2042 17.6027 6.97662 16.7575 7.79731 15.8626C7.95938 15.6854 8.12662 15.5029 8.28354 15.3204H8.28526C8.6025 14.9447 9.09559 14.7835 9.56455 14.904C10.1025 15.0386 10.5352 15.4462 10.7163 15.9849C10.4939 16.6901 9.90247 18.0173 8.34043 19.9311L8.33866 19.9311ZM4.68869 15.4374C4.52834 15.6926 4.20074 15.767 3.95247 15.604L0.247321 13.1746C0.126631 13.0966 0.0438725 12.9725 0.0128392 12.8308C-0.018195 12.689 0.0076671 12.5402 0.0835303 12.4179L7.63507 0.251623H7.63679C7.71266 0.131131 7.83334 0.0443013 7.97127 0.0141759C8.0092 0.00531606 8.04886 0 8.08852 0C8.18851 0 8.28679 0.030124 8.37127 0.0850552L12.0781 2.51623C12.3247 2.67925 12.3971 3.01594 12.2419 3.27111L4.68869 15.4374Z" fill="#A0A3A7"/>
</svg>
